<?xml version="1.0" encoding="UTF-8"?>
<svg width="90px" height="90px" viewBox="0 0 90 90" version="1.1" xmlns="http://www.w3.org/2000/svg" xmlns:xlink="http://www.w3.org/1999/xlink">
    <title>Large Icons</title>
    <defs>
        <polygon id="path-1" points="0.0348982619 0.669586467 54.447 0.669586467 54.447 18.573 0.0348982619 18.573"></polygon>
        <polygon id="path-3" points="0.0365719933 0.81 19.4380045 0.81 19.4380045 30.94 0.0365719933 30.94"></polygon>
    </defs>
    <g id="Large-Icons" stroke="none" stroke-width="1" fill="none" fill-rule="evenodd">
        <g id="airplane-travel_lg" transform="translate(9.000000, 28.500000)">
            <g id="Group-4" transform="translate(17.000000, 4.000000)">
                <mask id="mask-2" fill="white">
                    <use xlink:href="#path-1"></use>
                </mask>
                <g id="Clip-2"></g>
                <path d="M12.698,18.573 C12.211,18.573 11.776,18.552 11.412,18.504 C11.292,18.488 11.178,18.441 11.082,18.365 L6.326,14.625 C6.033,14.395 5.983,13.971 6.213,13.678 C6.444,13.384 6.867,13.333 7.161,13.564 L11.765,17.186 C14.236,17.423 20.398,16.506 22.885,15.783 L33.599,12.67 C33.956,12.57 34.332,12.771 34.436,13.13 C34.54,13.488 34.334,13.862 33.976,13.967 L23.262,17.08 C21.223,17.672 15.864,18.573 12.698,18.573" id="Fill-1" fill="#343534" mask="url(#mask-2)"></path>
                <path d="M4.993,13.394 C4.838,13.394 4.681,13.34 4.554,13.23 L0.466,9.715 C0.124,9.434 -0.031,8.994 0.061,8.55 C0.157,8.081 0.515,7.703 0.993,7.563 L4.198,6.633 C5.536,6.244 6.963,6.299 8.216,6.789 L14.773,9.195 L42.97,1.057 C44.682,0.562 46.498,0.541 48.223,0.996 L52.441,2.107 C53.365,2.351 54.076,3.045 54.34,3.964 C54.605,4.883 54.372,5.849 53.718,6.547 C52.298,8.063 50.495,9.169 48.503,9.747 L38.06,12.781 C37.703,12.881 37.327,12.68 37.223,12.321 C37.119,11.963 37.326,11.589 37.683,11.484 L48.126,8.45 C49.886,7.939 51.479,6.962 52.733,5.623 C53.059,5.275 53.174,4.795 53.043,4.337 C52.911,3.88 52.558,3.534 52.097,3.412 L47.878,2.301 C46.39,1.909 44.823,1.927 43.344,2.354 L14.935,10.554 C14.797,10.593 14.649,10.588 14.515,10.539 L7.737,8.052 C6.747,7.664 5.628,7.622 4.575,7.93 L1.499,8.823 L5.434,12.207 C5.717,12.45 5.749,12.876 5.506,13.159 C5.372,13.315 5.183,13.394 4.993,13.394 L4.993,13.394 Z" id="Fill-3" fill="#343534" mask="url(#mask-2)"></path>
            </g>
            <path d="M28.365,19.389 L26.091,20.049 L23.209,25.291 C23.036,25.605 23.33,25.972 23.674,25.871 L26.701,24.992 C27.433,24.779 28.094,24.375 28.617,23.82 L34.465,17.617 L32.637,18.147" id="Fill-5" fill="#BBCFDB"></path>
            <path d="M23.56,26.563 C23.239,26.563 22.93,26.419 22.721,26.159 C22.448,25.818 22.407,25.35 22.618,24.966 L25.499,19.724 C25.585,19.566 25.73,19.45 25.903,19.4 L28.178,18.74 C28.532,18.642 28.909,18.843 29.014,19.2 C29.118,19.559 28.912,19.933 28.553,20.037 L26.548,20.619 L24.118,25.039 L26.513,24.344 C27.129,24.165 27.687,23.823 28.126,23.357 L32.431,18.79 C32.224,18.724 32.054,18.56 31.989,18.336 C31.885,17.978 32.091,17.604 32.449,17.499 L34.277,16.968 C34.568,16.885 34.882,17.004 35.041,17.264 C35.2,17.523 35.165,17.858 34.956,18.079 L29.109,24.283 C28.504,24.925 27.737,25.394 26.889,25.641 L23.862,26.52 C23.762,26.549 23.66,26.563 23.56,26.563" id="Fill-6" fill="#343534"></path>
            <g id="Group-12" transform="translate(36.000000, 0.000000)">
                <mask id="mask-4" fill="white">
                    <use xlink:href="#path-3"></use>
                </mask>
                <g id="Clip-8"></g>
                <path d="M3.212,25.273 L0.817,29.631 C0.616,29.996 0.956,30.421 1.357,30.305 L3.969,29.546 C5.819,29.009 7.43,27.857 8.537,26.28 L18.763,11.72 L9.123,14.52 L4.63,22.694" id="Fill-7" fill="#BBCFDB" mask="url(#mask-4)"></path>
                <path d="M1.224,31 C0.883,31 0.555,30.847 0.334,30.571 C0.044,30.209 0.001,29.712 0.224,29.306 L2.62,24.948 C2.799,24.621 3.209,24.502 3.536,24.682 C3.864,24.861 3.983,25.271 3.803,25.599 L1.649,29.518 L3.781,28.897 C5.477,28.405 6.97,27.338 7.985,25.894 L17.107,12.904 L9.58,15.091 L5.221,23.02 C5.042,23.347 4.632,23.465 4.305,23.286 C3.978,23.107 3.859,22.696 4.038,22.369 L8.533,14.195 C8.618,14.038 8.763,13.922 8.935,13.872 L18.575,11.072 C18.852,10.995 19.146,11.095 19.312,11.328 C19.479,11.562 19.48,11.874 19.315,12.108 L9.089,26.669 C7.899,28.364 6.147,29.616 4.158,30.194 L1.545,30.954 C1.439,30.984 1.331,31 1.224,31" id="Fill-9" fill="#343534" mask="url(#mask-4)"></path>
                <path d="M17.573,7.622 L8.176,10.352 L0.848,3.058 C0.541,2.752 0.777,2.248 1.297,2.097 L2.451,1.761 C4.006,1.31 5.632,1.42 6.868,2.063 L14.17,5.856" id="Fill-10" fill="#638FB1" mask="url(#mask-4)"></path>
                <path d="M8.176,11.026 C8,11.026 7.828,10.958 7.7,10.83 L0.372,3.536 C0.084,3.25 -0.028,2.844 0.073,2.451 C0.192,1.983 0.589,1.6 1.109,1.448 L2.263,1.112 C3.991,0.609 5.782,0.738 7.179,1.463 L14.482,5.257 C14.813,5.429 14.942,5.836 14.77,6.167 C14.598,6.498 14.189,6.626 13.86,6.454 L6.557,2.661 C5.481,2.104 4.017,2.01 2.64,2.409 L1.49,2.743 L8.369,9.593 L17.384,6.974 C17.741,6.875 18.117,7.076 18.221,7.434 C18.325,7.792 18.118,8.166 17.761,8.271 L8.365,11 C8.302,11.018 8.239,11.026 8.176,11.026" id="Fill-11" fill="#343534" mask="url(#mask-4)"></path>
            </g>
            <path d="M65.471,8.82 C65.246,8.82 65.028,8.709 64.899,8.505 C64.701,8.189 64.796,7.773 65.112,7.574 C65.963,7.039 65.991,6.386 65.992,6.357 C66.001,5.992 66.3,5.692 66.666,5.692 L66.667,5.692 C67.035,5.693 67.333,5.978 67.341,6.344 C67.353,6.865 67.047,7.953 65.829,8.717 C65.718,8.787 65.594,8.82 65.471,8.82" id="Fill-13" fill="#343534"></path>
            <path d="M60.363,10.497 C60.476,10.886 60.252,11.293 59.863,11.407 C59.473,11.52 59.066,11.296 58.953,10.907 C58.84,10.517 59.064,10.11 59.453,9.997 C59.842,9.884 60.25,10.107 60.363,10.497" id="Fill-14" fill="#343534"></path>
            <path d="M62.808,9.787 C62.921,10.176 62.698,10.584 62.308,10.696 C61.918,10.81 61.511,10.586 61.398,10.196 C61.285,9.807 61.509,9.399 61.899,9.287 C62.287,9.173 62.695,9.398 62.808,9.787" id="Fill-15" fill="#343534"></path>
            <path d="M58.087,11.158 C58.201,11.547 57.977,11.955 57.587,12.068 C57.198,12.181 56.79,11.957 56.678,11.567 C56.565,11.178 56.788,10.771 57.178,10.658 C57.567,10.544 57.975,10.769 58.087,11.158" id="Fill-16" fill="#343534"></path>
            <path d="M41.436,15.995 C41.549,16.384 41.325,16.792 40.936,16.905 C40.546,17.018 40.139,16.794 40.026,16.405 C39.912,16.015 40.137,15.608 40.526,15.495 C40.915,15.382 41.323,15.606 41.436,15.995" id="Fill-17" fill="#343534"></path>
            <path d="M39.16,16.656 C39.274,17.045 39.05,17.453 38.66,17.566 C38.271,17.679 37.864,17.455 37.75,17.066 C37.637,16.676 37.862,16.269 38.25,16.156 C38.64,16.043 39.047,16.267 39.16,16.656" id="Fill-18" fill="#343534"></path>
            <g id="Group-22" transform="translate(0.000000, 16.000000)" fill="#343534">
                <path d="M11.919,11.432 C10.385,11.432 8.971,10.415 8.539,8.867 C8.288,7.965 8.403,7.018 8.863,6.202 C9.323,5.386 10.073,4.798 10.975,4.546 L17.752,2.655 C18.11,2.559 18.483,2.766 18.584,3.124 C18.684,3.483 18.474,3.855 18.115,3.956 L11.338,5.847 C10.783,6.001 10.322,6.363 10.039,6.865 C9.756,7.367 9.685,7.949 9.84,8.504 C10.16,9.649 11.352,10.321 12.498,10.002 C12.856,9.904 13.229,10.112 13.329,10.471 C13.429,10.83 13.219,11.202 12.86,11.303 C12.546,11.39 12.23,11.432 11.919,11.432" id="Fill-19"></path>
                <path d="M3.509,7.776 C1.957,7.776 0.534,6.736 0.118,5.167 C-0.121,4.262 0.006,3.316 0.476,2.507 C0.947,1.696 1.705,1.118 2.611,0.879 C2.974,0.782 3.341,0.998 3.436,1.358 C3.532,1.719 3.317,2.088 2.956,2.184 C2.399,2.331 1.933,2.687 1.643,3.186 C1.354,3.684 1.276,4.265 1.423,4.821 C1.571,5.378 1.927,5.845 2.425,6.134 C2.924,6.425 3.505,6.503 4.061,6.355 L15.713,3.268 C16.077,3.171 16.443,3.387 16.538,3.747 C16.634,4.107 16.419,4.477 16.058,4.572 L4.407,7.659 C4.107,7.738 3.805,7.776 3.509,7.776" id="Fill-21"></path>
            </g>
            <path d="M16.28,23.907 C15.981,23.907 15.707,23.707 15.628,23.403 C15.533,23.043 15.749,22.674 16.11,22.579 L19.304,21.742 C19.664,21.651 20.034,21.863 20.128,22.225 C20.222,22.585 20.007,22.954 19.646,23.049 L16.451,23.886 C16.394,23.9 16.337,23.907 16.28,23.907" id="Fill-23" fill="#343534"></path>
            <path d="M6.544,19.474 C6.249,19.474 5.979,19.279 5.895,18.982 C5.794,18.623 6.003,18.25 6.362,18.149 L14.463,15.871 C14.823,15.771 15.194,15.98 15.295,16.338 C15.396,16.696 15.187,17.069 14.828,17.17 L6.727,19.448 C6.666,19.466 6.605,19.474 6.544,19.474" id="Fill-24" fill="#343534"></path>
        </g>
    </g>
</svg>