<?xml version="1.0" encoding="utf-8"?>
<!-- Generator: Adobe Illustrator 19.2.1, SVG Export Plug-In . SVG Version: 6.00 Build 0)  -->
<!DOCTYPE svg PUBLIC "-//W3C//DTD SVG 1.1//EN" "http://www.w3.org/Graphics/SVG/1.1/DTD/svg11.dtd">
<svg version="1.1" id="Layer_1" xmlns="http://www.w3.org/2000/svg" xmlns:xlink="http://www.w3.org/1999/xlink" x="0px" y="0px"
	 viewBox="0 0 133.7 32.6" style="enable-background:new 0 0 133.7 32.6;" xml:space="preserve">
<style type="text/css">
	.st0{fill:#FFFFFF;}
	.st1{fill:#FFFFFF;stroke:#FFFFFF;stroke-miterlimit:10;}
	.st2{fill:#FFFFFF;stroke:#FFFFFF;stroke-width:0.3594;}
	.st3{fill:#00539B;}
	.st4{fill:#DA291C;}
	.st5{fill-rule:evenodd;clip-rule:evenodd;fill:#DA291C;}
</style>
<g>
	<g>
		<g>
			<path class="st0" d="M62,2.4h12.7l6.4,20h0.1l6.7-20H100v30.1h-7.9l0.1-23.2h-0.1l-7.7,23.2h-7.4L69.8,9.4h-0.1l0.2,23.2H62V2.4z
				 M40.8,2.4h9.8l11.6,30.1h-8.8l-2.2-6.4H39.8l-2.4,6.4h-8.2L40.8,2.4z M45.7,8.6L45.7,8.6l-4,11.8h7.6L45.7,8.6z M111.3,2.4h9.9
				l11.6,30.1h-8.8l-2.2-6.4h-11.3l-2.4,6.4h-8.2L111.3,2.4z M116.2,8.6L116.2,8.6l-4,11.8h7.6L116.2,8.6z"/>
		</g>
	</g>
	<path class="st1" d="M1,13.7c-0.1-7.2,8.4-13,19-13c10.5,0,19.1,5.8,19.2,13c0.1,7.2-8.4,13-19,13C9.7,26.7,1.1,20.9,1,13.7z"/>
	<path class="st2" d="M36.6,8.2c2,2.5,2.5,6.5,0.9,9.3c-3.6,6.2-10.3,8.1-17,8.4c-7.1,0-13.9-2-17.8-8c-1.5-2.7-1.2-6.7,0.6-9.2
		c5.3-6.9,14-8.2,22.3-6.8C29.8,3,33.7,4.6,36.6,8.2L36.6,8.2z"/>
	<path class="st3" d="M36.6,8.2c2,2.5,2.5,6.5,0.9,9.3c-3.6,6.2-10.3,8.1-17,8.4c-7.1,0-13.9-2-17.8-8c-1.5-2.7-1.2-6.7,0.6-9.2
		c5.3-6.9,14-8.2,22.3-6.8C29.8,3,33.7,4.6,36.6,8.2L36.6,8.2z"/>
	<path class="st0" d="M34.4,10.1c1,1.4,1.5,3.5,1,5.2c-1.8,5.1-7.4,7-12.2,7.7c-6.1,0.7-12.3-0.3-16.7-4.5c-1.7-1.8-2.5-4.4-1.6-6.8
		c2.5-5.3,8.3-6.9,13.6-7.5C24.7,4.1,30.5,5.2,34.4,10.1L34.4,10.1z"/>
	<path class="st4" d="M24.5,12.8l0.3,0.8c-0.5,1.6-1,3.2-1.4,4.8l2.9,0l1.2,2.7L24.2,22c-0.6-1.5-1.1-3.1-1.6-4.6l-5.6,0
		c-0.5,1.4-1,2.9-1.4,4.4c-1.1-0.1-2.2-0.4-3.4-0.7c0.2-0.8,0.5-1.6,0.8-2.3c1.6-0.8,2.9-2.5,2.9-4.4l-1.4,0l3.2-9.5
		c1.4,0,2.5-0.1,3.9-0.1L24.5,12.8L24.5,12.8z"/>
	<path class="st4" d="M33.5,18l-2.7,0c-0.2-0.7-0.4-1.3-0.6-2l-3.2,0c-0.2,0.6-0.3,1.3-0.4,2l-2.7,0L27,7.6l3.1,0L33.5,18L33.5,18z"
		/>
	<path class="st4" d="M14.8,9.5c0.3,0.5,0.5,1.1,0.5,1.8l-2.6,0c-0.1-0.4-0.1-0.8-0.5-1.1c-0.4-0.3-1-0.4-1.5-0.2
		c-1.6,0.8-1.4,2.7-1.3,4.4c0.2,0.8,0.5,1.9,1.4,2.1c0.5,0,1,0,1.4-0.3c0.4-0.4,0.5-0.9,0.7-1.3h2.6c-0.2,1.8-1.5,3.4-3.3,3.8
		C10.6,18.9,9,18.5,8,17.3c-1.6-1.9-1.8-4.7-0.8-6.9C7.9,9,9.4,7.8,11,7.7C12.5,7.6,13.8,8.2,14.8,9.5L14.8,9.5z"/>
	<path class="st0" d="M21.6,14.7h-3.8l1.8-6.1C20.3,10.6,21,12.6,21.6,14.7L21.6,14.7z"/>
	<path class="st0" d="M27.6,13.8c0.2-1.1,0.5-2.2,0.8-3.3l1,3.3H27.6L27.6,13.8z"/>
	<path class="st5" d="M33.9,16.2c0.3,0,0.6-0.3,0.6-0.6c0-0.3-0.3-0.6-0.6-0.6c-0.3,0-0.6,0.3-0.6,0.6
		C33.3,15.9,33.6,16.2,33.9,16.2L33.9,16.2z M33.4,15.6c0-0.3,0.2-0.5,0.5-0.5c0.3,0,0.5,0.2,0.5,0.5c0,0.3-0.2,0.5-0.5,0.5
		C33.6,16.1,33.4,15.9,33.4,15.6L33.4,15.6z M33.8,15.6h0.1l0.2,0.3h0.1L34,15.6c0.1,0,0.2-0.1,0.2-0.2c0-0.1-0.1-0.2-0.2-0.2h-0.3
		v0.7h0.1V15.6L33.8,15.6z M33.8,15.5v-0.2h0.1c0.1,0,0.2,0,0.2,0.1c0,0.1-0.1,0.1-0.2,0.1H33.8L33.8,15.5z"/>
</g>
</svg>
