<?xml version="1.0" encoding="utf-8"?>
<!-- Generator: Adobe Illustrator 19.2.1, SVG Export Plug-In . SVG Version: 6.00 Build 0)  -->
<!DOCTYPE svg PUBLIC "-//W3C//DTD SVG 1.1//EN" "http://www.w3.org/Graphics/SVG/1.1/DTD/svg11.dtd">
<svg version="1.1" id="Layer_1" xmlns="http://www.w3.org/2000/svg" xmlns:xlink="http://www.w3.org/1999/xlink" x="0px" y="0px"
	 viewBox="0 0 264 64" style="enable-background:new 0 0 264 64;" xml:space="preserve">
<style type="text/css">
	.st0{fill:#00539B;}
	.st1{fill:#FFFFFF;stroke:#FFFFFF;stroke-miterlimit:10;}
	.st2{fill:#FFFFFF;stroke:#FFFFFF;stroke-width:0.3594;}
	.st3{fill:#FFFFFF;}
	.st4{fill:#DA291C;}
	.st5{fill-rule:evenodd;clip-rule:evenodd;fill:#DA291C;}
</style>
<g>
	<g>
		<path class="st0" d="M121.8,4.1h25.1l12.7,39.7h0.2L173,4.1h24.1v59.7h-15.6l0.3-45.9h-0.2l-15.2,45.9h-14.6L137.2,18H137
			l0.3,45.9h-15.6V4.1z M79.8,4.1h19.5l23,59.7h-17.5l-4.5-12.8H78l-4.7,12.8H57.1L79.8,4.1z M89.5,16.4h-0.2l-7.7,23.4h15
			L89.5,16.4z M219.5,4.1H239l23,59.7h-17.5l-4.4-12.8h-22.4L213,63.9h-16.2L219.5,4.1z M229.2,16.4h-0.2l-7.7,23.4h15L229.2,16.4z"
			/>
	</g>
</g>
<path class="st1" d="M1,26.5C0.9,12.3,17.7,0.8,38.6,0.8c20.9,0,37.9,11.5,38,25.7C76.7,40.7,59.9,52.2,39,52.2
	C18.1,52.2,1.1,40.7,1,26.5z"/>
<path class="st2" d="M71.4,15.6c4,4.9,4.9,12.8,1.9,18.5c-7.1,12.2-20.4,16-33.7,16.6c-14,0.1-27.5-4-35.2-15.9
	c-3-5.3-2.4-13.3,1.3-18.2C16.1,3.1,33.4,0.5,49.9,3.3C58,5.2,65.8,8.3,71.4,15.6L71.4,15.6z"/>
<path class="st0" d="M71.4,15.6c4,4.9,4.9,12.8,1.9,18.5c-7.1,12.2-20.4,16-33.7,16.6c-14,0.1-27.5-4-35.2-15.9
	c-3-5.3-2.4-13.3,1.3-18.2C16.1,3.1,33.4,0.5,49.9,3.3C58,5.2,65.8,8.3,71.4,15.6L71.4,15.6z"/>
<path class="st3" d="M67.2,19.2c2,2.9,3,6.8,1.9,10.4c-3.6,10.1-14.6,13.9-24.2,15.2c-12.1,1.4-24.4-0.6-33-8.9
	C8.6,32.4,7,27.2,8.8,22.5c5-10.6,16.5-13.6,27-14.8C48.1,7.4,59.5,9.7,67.2,19.2L67.2,19.2z"/>
<path class="st4" d="M47.6,24.7l0.5,1.6c-1,3.2-1.9,6.3-2.8,9.6l5.8-0.1l2.4,5.4L46.9,43c-1.2-3-2.1-6.1-3.2-9.1l-11.1,0
	c-1,2.9-1.9,5.8-2.7,8.7c-2.2-0.2-4.4-0.9-6.7-1.3c0.3-1.5,1-3.1,1.5-4.6c3.2-1.5,5.8-5,5.8-8.7l-2.8-0.1l6.3-18.7
	C36.8,9,39.1,9,41.7,9L47.6,24.7L47.6,24.7z"/>
<path class="st4" d="M65.5,35.1l-5.3,0c-0.3-1.3-0.7-2.6-1.1-3.9l-6.4-0.1c-0.4,1.3-0.6,2.6-0.9,3.9l-5.4,0.1l6.1-20.8l6.1,0
	L65.5,35.1L65.5,35.1z"/>
<path class="st4" d="M28.3,18.1c0.7,1,1.1,2.2,1.1,3.5l-5.2,0.1c-0.1-0.8-0.2-1.6-0.9-2.1c-0.8-0.7-2-0.7-3-0.5
	c-3.2,1.7-2.9,5.4-2.6,8.7c0.3,1.7,0.9,3.7,2.8,4.2c1,0,2,0,2.7-0.6c0.7-0.8,1.1-1.7,1.3-2.7h5.2c-0.4,3.6-3.1,6.7-6.5,7.6
	c-3.2,0.6-6.2-0.3-8.3-2.7c-3.2-3.7-3.6-9.3-1.5-13.6c1.3-2.8,4.3-5.1,7.4-5.4C23.8,14.5,26.4,15.6,28.3,18.1L28.3,18.1z"/>
<path class="st3" d="M41.7,28.4h-7.5l3.6-12C39.1,20.4,40.6,24.3,41.7,28.4L41.7,28.4z"/>
<path class="st3" d="M53.8,26.6c0.4-2.1,1-4.4,1.6-6.5l2,6.5H53.8L53.8,26.6z"/>
<path class="st5" d="M66.2,31.4c0.7,0,1.2-0.5,1.2-1.2c0-0.7-0.6-1.2-1.2-1.2c-0.7,0-1.2,0.5-1.2,1.2C65,30.9,65.6,31.4,66.2,31.4
	L66.2,31.4z M65.2,30.2c0-0.6,0.4-1,1-1c0.5,0,1,0.4,1,1c0,0.6-0.4,1-1,1C65.7,31.2,65.2,30.7,65.2,30.2L65.2,30.2z M66,30.3h0.2
	l0.4,0.6h0.2l-0.4-0.6c0.2,0,0.4-0.1,0.4-0.4c0-0.3-0.2-0.4-0.5-0.4h-0.5v1.4H66V30.3L66,30.3z M66,30.1v-0.4h0.3
	c0.1,0,0.3,0,0.3,0.2c0,0.2-0.2,0.2-0.3,0.2H66L66,30.1z"/>
</svg>
