<svg xmlns="http://www.w3.org/2000/svg" viewBox="0 0 264 64" enable-background="new 0 0 264 64"><style type="text/css">.st0{fill:#00539B;} .st1{fill:#FFFFFF;stroke:#FFFFFF;stroke-miterlimit:10;} .st2{fill:#FFFFFF;stroke:#FFFFFF;stroke-width:0.3594;} .st3{fill:#FFFFFF;} .st4{fill:#DA291C;} .st5{fill-rule:evenodd;clip-rule:evenodd;fill:#DA291C;}</style><path d="M121.8 4.1h25.1l12.7 39.7h.2L173 4.1h24.1v59.7h-15.6l.3-45.9h-.2l-15.2 45.9h-14.6L137.2 18h-.2l.3 45.9h-15.6V4.1zm-42 0h19.5l23 59.7h-17.5L100.3 51H78l-4.7 12.8H57.1L79.8 4.1zm9.7 12.3h-.2l-7.7 23.4h15l-7.1-23.4zm130-12.3H239l23 59.7h-17.5L240.1 51h-22.4L213 63.9h-16.2l22.7-59.8zm9.7 12.3h-.2l-7.7 23.4h15l-7.1-23.4z" class="st0"/><path d="M1 26.5C.9 12.3 17.7.8 38.6.8c20.9 0 37.9 11.5 38 25.7.1 14.2-16.7 25.7-37.6 25.7-20.9 0-37.9-11.5-38-25.7z" class="st1"/><path d="M71.4 15.6c4 4.9 4.9 12.8 1.9 18.5-7.1 12.2-20.4 16-33.7 16.6-14 .1-27.5-4-35.2-15.9-3-5.3-2.4-13.3 1.3-18.2C16.1 3.1 33.4.5 49.9 3.3c8.1 1.9 15.9 5 21.5 12.3z" class="st2"/><path d="M71.4 15.6c4 4.9 4.9 12.8 1.9 18.5-7.1 12.2-20.4 16-33.7 16.6-14 .1-27.5-4-35.2-15.9-3-5.3-2.4-13.3 1.3-18.2C16.1 3.1 33.4.5 49.9 3.3c8.1 1.9 15.9 5 21.5 12.3z" class="st0"/><path d="M67.2 19.2c2 2.9 3 6.8 1.9 10.4-3.6 10.1-14.6 13.9-24.2 15.2-12.1 1.4-24.4-.6-33-8.9-3.3-3.5-4.9-8.7-3.1-13.4 5-10.6 16.5-13.6 27-14.8 12.3-.3 23.7 2 31.4 11.5z" class="st3"/><path d="M47.6 24.7l.5 1.6c-1 3.2-1.9 6.3-2.8 9.6l5.8-.1 2.4 5.4-6.6 1.8c-1.2-3-2.1-6.1-3.2-9.1H32.6c-1 2.9-1.9 5.8-2.7 8.7-2.2-.2-4.4-.9-6.7-1.3.3-1.5 1-3.1 1.5-4.6 3.2-1.5 5.8-5 5.8-8.7l-2.8-.1L34 9.2c2.8-.2 5.1-.2 7.7-.2l5.9 15.7zM65.5 35.1h-5.3c-.3-1.3-.7-2.6-1.1-3.9l-6.4-.1c-.4 1.3-.6 2.6-.9 3.9l-5.4.1 6.1-20.8h6.1l6.9 20.8zM28.3 18.1c.7 1 1.1 2.2 1.1 3.5l-5.2.1c-.1-.8-.2-1.6-.9-2.1-.8-.7-2-.7-3-.5-3.2 1.7-2.9 5.4-2.6 8.7.3 1.7.9 3.7 2.8 4.2 1 0 2 0 2.7-.6.7-.8 1.1-1.7 1.3-2.7h5.2c-.4 3.6-3.1 6.7-6.5 7.6-3.2.6-6.2-.3-8.3-2.7-3.2-3.7-3.6-9.3-1.5-13.6 1.3-2.8 4.3-5.1 7.4-5.4 3-.1 5.6 1 7.5 3.5z" class="st4"/><path d="M41.7 28.4h-7.5l3.6-12c1.3 4 2.8 7.9 3.9 12zM53.8 26.6c.4-2.1 1-4.4 1.6-6.5l2 6.5h-3.6z" class="st3"/><path d="M66.2 31.4c.7 0 1.2-.5 1.2-1.2s-.6-1.2-1.2-1.2c-.7 0-1.2.5-1.2 1.2s.6 1.2 1.2 1.2zm-1-1.2c0-.6.4-1 1-1 .5 0 1 .4 1 1s-.4 1-1 1c-.5 0-1-.5-1-1zm.8.1h.2l.4.6h.2l-.4-.6c.2 0 .4-.1.4-.4 0-.3-.2-.4-.5-.4h-.5v1.4h.2v-.6zm0-.2v-.4h.3c.1 0 .3 0 .3.2s-.2.2-.3.2H66z" class="st5"/></svg>