<?xml version="1.0" encoding="UTF-8"?>
<svg width="90px" height="60px" viewBox="0 0 90 60" version="1.1" xmlns="http://www.w3.org/2000/svg" xmlns:xlink="http://www.w3.org/1999/xlink">
    <title>Large Icons</title>
    <g id="Large-Icons" stroke="none" stroke-width="1" fill="none" fill-rule="evenodd">
        <g id="Car-Accident" transform="translate(9.000000, 2.000000)" stroke="#343534" stroke-width="1.4">
            <g id="Road" transform="translate(4.000000, 51.000000)" stroke-linecap="round" stroke-linejoin="round">
                <line x1="65.3679435" y1="0.5" x2="46.40625" y2="0.5" id="Road-3"></line>
                <line x1="41.9206452" y1="0.5" x2="10.2406452" y2="0.5" id="Road-2"></line>
                <line x1="5.7483871" y1="0.5" x2="0.638709677" y2="0.5" id="Road-1"></line>
            </g>
            <g id="Car" transform="translate(46.390252, 30.473134) rotate(12.000000) translate(-46.390252, -30.473134) translate(20.890252, 13.473134)">
                <path d="M8.89682986,22.5707283 C9.3662719,22.5707283 9.7912719,22.7610073 10.0989114,23.0686468 C10.4065509,23.3762862 10.5968299,23.8012862 10.5968299,24.2707283 L10.5968299,24.2707283 L10.5968299,32.1051455 C10.5968299,32.5745875 10.4065509,32.9995875 10.0989114,33.307227 C9.7912719,33.6148665 9.3662719,33.8051455 8.89682986,33.8051455 L8.89682986,33.8051455 L4.51051479,33.8051455 C4.04107275,33.8051455 3.61607275,33.6148665 3.30843326,33.307227 C3.00079377,32.9995875 2.81051479,32.5745875 2.81051479,32.1051455 L2.81051479,32.1051455 L2.81051479,24.2707283 C2.81051479,23.8012862 3.00079377,23.3762862 3.30843326,23.0686468 C3.61607275,22.7610073 4.04107275,22.5707283 4.51051479,22.5707283 L4.51051479,22.5707283 Z" id="Tire-L" fill="#BBCFDB"></path>
                <path d="M45.9374573,22.5707283 C46.4068993,22.5707283 46.8318993,22.7610073 47.1395388,23.0686468 C47.4471783,23.3762862 47.6374573,23.8012862 47.6374573,24.2707283 L47.6374573,24.2707283 L47.6374573,32.1051455 C47.6374573,32.5745875 47.4471783,32.9995875 47.1395388,33.307227 C46.8318993,33.6148665 46.4068993,33.8051455 45.9374573,33.8051455 L45.9374573,33.8051455 L41.5511422,33.8051455 C41.0817002,33.8051455 40.6567002,33.6148665 40.3490607,33.307227 C40.0414212,32.9995875 39.8511422,32.5745875 39.8511422,32.1051455 L39.8511422,32.1051455 L39.8511422,24.2707283 C39.8511422,23.8012862 40.0414212,23.3762862 40.3490607,23.0686468 C40.6567002,22.7610073 41.0817002,22.5707283 41.5511422,22.5707283 L41.5511422,22.5707283 Z" id="Tire-R" fill="#BBCFDB"></path>
                <path d="M44.9374573,12.9316945 C45.6830417,12.9316945 46.3580417,13.2339023 46.8466456,13.7225062 C47.3352495,14.2111101 47.6374573,14.8861101 47.6374573,15.6316945 L47.6374573,15.6316945 L47.6374573,26.1879369 C47.6374573,26.9335213 47.3352495,27.6085213 46.8466456,28.0971252 C46.3580417,28.5857291 45.6830417,28.8879369 44.9374573,28.8879369 L44.9374573,28.8879369 L5.51051479,28.8879369 C4.76493038,28.8879369 4.08993038,28.5857291 3.60132648,28.0971252 C3.11272259,27.6085213 2.81051479,26.9335213 2.81051479,26.1879369 L2.81051479,26.1879369 L2.81051479,15.6316945 C2.81051479,14.8861101 3.11272259,14.2111101 3.60132648,13.7225062 C4.08993038,13.2339023 4.76493038,12.9316945 5.51051479,12.9316945 L5.51051479,12.9316945 Z" id="Body" fill="#638FB1"></path>
                <path d="M13.5205458,18.6337219 C13.5348636,19.7221786 13.5141327,21.0844482 13.4581026,22.7205271 C13.4502611,22.9494991 13.4420967,23.1730733 13.4335531,23.391194 C13.2000682,23.3958597 12.9740157,23.3965685 12.7585127,23.3965685 C11.5099976,23.3965685 9.90739032,23.3727773 8.55686953,22.6935884 C8.0040326,22.4155617 7.51971198,21.9476353 7.18568292,21.3198984 C6.80902112,20.6120424 6.62187986,19.6963624 6.76442668,18.6337687 L6.76442668,18.6337687 L8.86241279,18.6358855 L9.377666,18.6360938 L10.4590588,18.6360939 L11.0249376,18.6358857 L12.2075283,18.6350525 Z" id="Headlight-L" fill="#FFFFFF" stroke-linecap="round" stroke-linejoin="round" transform="translate(10.120804, 21.015498) rotate(-180.000000) translate(-10.120804, -21.015498) "></path>
                <path d="M44.1694328,18.6337205 C44.1837364,19.7221705 44.1630264,21.0844326 44.1070528,22.7205031 C44.0992192,22.9494734 44.0910631,23.1730462 44.0824147,23.3911809 C43.8489565,23.3958577 43.6229319,23.3965685 43.4074621,23.3965685 C42.1600212,23.3965685 40.5588167,23.3727423 39.2094692,22.6934615 C38.6571283,22.4154052 38.1732038,21.9474536 37.8394699,21.3196411 C37.4632241,20.6118563 37.2762846,19.6962615 37.4186992,18.633768 L37.4186992,18.633768 L39.5152743,18.6358855 L40.0300096,18.6360938 L41.1103163,18.6360939 L41.6756264,18.6358857 L42.8570295,18.6350525 Z" id="Headlight-R" fill="#FFFFFF" stroke-linecap="round" stroke-linejoin="round" transform="translate(40.772402, 21.015498) scale(-1, 1) rotate(180.000000) translate(-40.772402, -21.015498) "></path>
                <path d="M20.4321547,18.6299728 C19.3905148,18.62979 18.5382989,18.6293574 17.999623,18.628538 C17.999623,23.4637063 20.5016054,23.4012816 25.1434486,23.4012816 C29.7852918,23.4012816 32.2936805,23.4637063 32.2936805,18.628538 C29.9560493,18.628538 26.3778093,18.6296674 23.3109928,18.6299938" id="Grill" fill="#BBCFDB" stroke-linecap="round" stroke-linejoin="round" transform="translate(25.146652, 21.014910) rotate(-180.000000) translate(-25.146652, -21.014910) "></path>
                <path d="M5.34575682,8.56507299 C5.35057369,8.83802894 5.35297666,9.07263836 5.35297666,9.26890113 L5.35257601,9.41407408 C5.34883589,10.1213742 5.31890095,11.2462436 5.26237911,12.7886781 L5.26237911,12.7886781 L3.84280798,12.8021641 C2.77160174,12.8121304 1.7219729,12.7417428 0.964252208,12.2652489 C-0.195915812,11.5356754 -0.7,10.2544109 -0.7,9.27789516 C-0.7,9.0564745 -0.674083233,8.81938563 -0.620457124,8.5766539 C-0.412743928,8.57716763 -0.205569957,8.57758165 0.00106478885,8.57789597 C1.521273,8.5802084 3.07068314,8.57721315 4.64929523,8.56891081 C4.8821752,8.56768604 5.11441848,8.56635245 5.34575682,8.56507299 Z" id="Mirror-L" fill="#BBCFDB" stroke-linecap="round" stroke-linejoin="round"></path>
                <path d="M51.3234918,8.56507467 C51.3283048,8.83803009 51.3307059,9.07263895 51.3307059,9.26890113 L51.3303055,9.41407367 C51.3265684,10.1213719 51.2966574,11.2462397 51.240181,12.7886729 L51.240181,12.7886729 L49.8211988,12.8021641 C48.7506375,12.8121323 47.7016812,12.7416945 46.9444316,12.2651138 C45.7852484,11.5355733 45.2814685,10.2544016 45.2814685,9.27789516 C45.2814685,9.05647661 45.3073696,8.81939413 45.3609536,8.57665252 C45.5686869,8.57716689 45.7758804,8.57758137 45.9825342,8.57789597 C47.5015182,8.5802084 49.0496806,8.57721315 50.6270215,8.56891083 C50.8599065,8.56768504 51.0921542,8.56635027 51.3234918,8.56507467 Z" id="Mirror-R" fill="#BBCFDB" stroke-linecap="round" stroke-linejoin="round" transform="translate(48.306087, 10.686177) scale(-1, 1) translate(-48.306087, -10.686177) "></path>
                <path d="M8.38621567,10.3974869 L10.4052716,3.99370389 C10.8542054,2.75449769 11.5840997,1.77004556 12.5949544,1.04034748 C13.6058092,0.310649413 15.0037511,-0.0351918578 16.7887802,0.00282367102 L18.1857002,0.00282367102 M21.4074132,0.00282367102 L32.3675846,0.00282367102 C34.8010679,0.00282367102 36.4885457,0.348664942 37.4300178,1.04034748 C38.37149,1.73203003 39.0856887,2.71648216 39.572614,3.99370389 L42.5831941,12.6175202" id="Windshield" stroke-linecap="round" stroke-linejoin="round"></path>
                <line x1="28.8842793" y1="3.77525916" x2="31.0262058" y2="9.13007543" id="Glass-1" stroke-linecap="round" stroke-linejoin="round"></line>
                <line x1="34.5674115" y1="4.75705053" x2="35.7259866" y2="7.96773036" id="Glass-2" stroke-linecap="round" stroke-linejoin="round"></line>
            </g>
            <g id="Spark" transform="translate(-0.000000, -0.000000)" stroke-linecap="round" stroke-linejoin="round">
                <path d="M16.54778,36.1994767 C15.7574873,37.0029939 13.9568836,39.6031683 11.1459691,44 C17.0427885,28.4769234 17.0822901,26.3702984 1.8971086e-15,30.1458809 C14.3981369,23.0332186 16.160195,21.7792523 1.56024794,12.0414149 C16.0836688,17.6539292 18.7653449,17.6539292 15.1898637,-1.89734658e-14 C22.4064015,17.1421934 24.2524168,14.3417915 33,1.07071886 C31.7796657,3.91944993 30.6757503,7.07275958 29.6882538,10.5306478" id="Big-Spark"></path>
                <line x1="10.5497948" y1="32.252081" x2="7.72406164" y2="35.3326794" id="Spark-4"></line>
                <line x1="5.57611337" y1="21.2397888" x2="1.739374" y2="20.9644198" id="Spark-3"></line>
                <line x1="11.317273" y1="9.96151874" x2="8.93792098" y2="6.89291567" id="Spark-2"></line>
                <line x1="23.3747773" y1="7.08614574" x2="24.202225" y2="3.00784382" id="Spark-1"></line>
            </g>
        </g>
    </g>
</svg>