<?xml version="1.0" encoding="UTF-8"?>
<svg width="60px" height="60px" viewBox="0 0 60 60" version="1.1" xmlns="http://www.w3.org/2000/svg" xmlns:xlink="http://www.w3.org/1999/xlink">
    <title>Artboard</title>
    <g id="Artboard" stroke="none" stroke-width="1" fill="none" fill-rule="evenodd">
        <g id="auto-insurance_sm" transform="translate(2.000000, 13.000000)">
            <polygon id="Fill-1" fill="#BBCFDB" points="8.899 28.813 15.44 28.813 15.44 22.873 8.899 22.873"></polygon>
            <path d="M13.743,29.263 L10.727,29.263 C10.382,29.263 10.102,28.984 10.102,28.638 C10.102,28.293 10.382,28.013 10.727,28.013 L13.743,28.013 C14.372,28.013 14.884,27.501 14.884,26.872 L14.884,21.094 C14.884,20.749 15.163,20.469 15.509,20.469 C15.854,20.469 16.134,20.749 16.134,21.094 L16.134,26.872 C16.134,28.191 15.061,29.263 13.743,29.263" id="Fill-2" fill="#343534"></path>
            <g id="Group-6" transform="translate(8.967000, 10.847000)">
                <path d="M25.38,5.044 C27.241,4.267 30.589,3.14 34.919,3.138 C35,3.138 35.075,3.145 35.155,3.145 L35.155,3.115 C35.155,1.395 33.76,3.55271368e-15 32.04,3.55271368e-15 L3.115,3.55271368e-15 C1.395,3.55271368e-15 1.77635684e-15,1.395 1.77635684e-15,3.115 L1.77635684e-15,10.121 C1.77635684e-15,11.842 1.395,13.236 3.115,13.236 L25.38,13.236 L25.38,5.044" id="Fill-3" fill="#638FB1"></path>
                <path d="M26.005,5.464 L26.005,18.273 C26.005,19.378 26.566,20.427 27.506,21.08 L34.543,25.135 C34.776,25.269 35.077,25.269 35.309,25.135 L42.39,21.052 C43.286,20.427 43.847,19.378 43.847,18.273 L43.847,5.464 C41.039,4.35 37.964,3.763 34.927,3.763 C34.924,3.763 34.922,3.763 34.919,3.763 C31.885,3.764 28.812,4.351 26.005,5.464 Z M34.926,26.486 C34.578,26.486 34.229,26.396 33.919,26.218 L26.838,22.135 C25.516,21.22 24.755,19.787 24.755,18.273 L24.755,5.043 C24.755,4.791 24.906,4.564 25.139,4.467 C28.201,3.189 31.582,2.514 34.919,2.513 C34.921,2.513 34.924,2.513 34.927,2.513 C38.267,2.513 41.65,3.188 44.713,4.467 C44.946,4.564 45.097,4.792 45.097,5.043 L45.097,18.273 C45.097,19.787 44.336,21.22 43.059,22.106 L35.933,26.218 C35.623,26.396 35.274,26.486 34.926,26.486 L34.926,26.486 Z" id="Fill-5" fill="#343534"></path>
            </g>
            <path d="M13.748,29.263 L10.733,29.263 C9.414,29.263 8.342,28.191 8.342,26.872 L8.342,21.094 C8.342,20.749 8.621,20.469 8.967,20.469 C9.312,20.469 9.592,20.749 9.592,21.094 L9.592,26.872 C9.592,27.501 10.103,28.013 10.733,28.013 L13.748,28.013 C14.093,28.013 14.373,28.293 14.373,28.638 C14.373,28.984 14.093,29.263 13.748,29.263" id="Fill-7" fill="#343534"></path>
            <path d="M16.817,19.672 L12.788,19.672 C12.368,19.672 12.027,19.331 12.027,18.911 L12.027,16.447 C12.027,16.027 12.368,15.686 12.788,15.686 L14.353,15.686 C16.134,15.686 17.578,17.13 17.578,18.911 C17.578,19.331 17.237,19.672 16.817,19.672" id="Fill-8" fill="#FFFFFE"></path>
            <path d="M42.932,7.498 L46.521,7.498 C46.895,7.498 47.198,7.802 47.198,8.176 C47.198,9.761 45.913,11.047 44.327,11.047 L42.932,11.047 C42.558,11.047 42.256,10.744 42.256,10.37 L42.256,8.176 C42.256,7.802 42.558,7.498 42.932,7.498" id="Fill-9" fill="#BBCFDB"></path>
            <path d="M42.932,8.123 C42.904,8.123 42.881,8.147 42.881,8.176 L42.881,10.37 L44.327,10.422 C45.565,10.422 46.573,9.414 46.573,8.176 L42.932,8.123 Z M44.327,11.672 L42.932,11.672 C42.215,11.672 41.631,11.088 41.631,10.37 L41.631,8.176 C41.631,7.457 42.215,6.873 42.932,6.873 L46.521,6.873 C47.239,6.873 47.823,7.457 47.823,8.176 C47.823,10.104 46.255,11.672 44.327,11.672 L44.327,11.672 Z" id="Fill-10" fill="#343534"></path>
            <path d="M10.445,7.498 L6.856,7.498 C6.482,7.498 6.179,7.802 6.179,8.176 C6.179,9.761 7.465,11.047 9.051,11.047 L10.445,11.047 C10.819,11.047 11.122,10.744 11.122,10.37 L11.122,8.176 C11.122,7.802 10.819,7.498 10.445,7.498" id="Fill-11" fill="#BBCFDB"></path>
            <path d="M6.856,8.123 C6.804,9.414 7.811,10.422 9.05,10.422 L10.445,10.422 L10.497,8.176 L10.445,8.123 L6.856,8.123 Z M10.445,11.672 L9.05,11.672 C7.122,11.672 5.554,10.104 5.554,8.176 C5.554,7.457 6.138,6.873 6.856,6.873 L10.445,6.873 C11.163,6.873 11.747,7.457 11.747,8.176 L11.747,10.37 C11.747,11.088 11.163,11.672 10.445,11.672 L10.445,11.672 Z" id="Fill-12" fill="#343534"></path>
            <g id="Group-18" fill="#343534">
                <path d="M21.527,19.046 L31.562,19.046 L31.562,18.719 C31.562,17.391 30.481,16.311 29.153,16.311 L23.935,16.311 C22.607,16.311 21.527,17.391 21.527,18.719 L21.527,19.046 Z M32.187,20.296 L20.902,20.296 C20.557,20.296 20.277,20.016 20.277,19.671 L20.277,18.719 C20.277,16.702 21.918,15.061 23.935,15.061 L29.153,15.061 C31.171,15.061 32.812,16.702 32.812,18.719 L32.812,19.671 C32.812,20.016 32.532,20.296 32.187,20.296 L32.187,20.296 Z" id="Fill-13"></path>
                <path d="M40.163,11.425 C39.9,11.425 39.655,11.259 39.569,10.995 L37.306,4.114 C36.758,2.399 35.185,1.25 33.39,1.25 L19.501,1.25 C17.706,1.25 16.133,2.399 15.587,4.109 L13.438,10.825 C13.333,11.154 12.983,11.336 12.653,11.23 C12.324,11.125 12.142,10.773 12.248,10.444 L14.396,3.728 C15.109,1.498 17.16,0 19.501,0 L33.39,0 C35.73,0 37.782,1.498 38.494,3.728 L40.757,10.605 C40.864,10.933 40.686,11.286 40.358,11.394 C40.293,11.415 40.227,11.425 40.163,11.425" id="Fill-15"></path>
                <path d="M36.785,11.429 C36.44,11.429 36.16,11.15 36.16,10.804 C36.16,9.211 34.864,7.915 33.27,7.915 C31.678,7.915 30.381,9.211 30.381,10.804 C30.381,11.15 30.102,11.429 29.756,11.429 C29.411,11.429 29.131,11.15 29.131,10.804 C29.131,8.522 30.988,6.665 33.27,6.665 C35.554,6.665 37.41,8.522 37.41,10.804 C37.41,11.15 37.131,11.429 36.785,11.429" id="Fill-16"></path>
                <path d="M34.118,29.258 L0.625,29.258 C0.28,29.258 0,28.978 0,28.633 C0,28.287 0.28,28.008 0.625,28.008 L34.118,28.008 C34.464,28.008 34.743,28.287 34.743,28.633 C34.743,28.978 34.464,29.258 34.118,29.258" id="Fill-17"></path>
            </g>
            <path d="M45.358,27.317 L43.926,28.75 C43.621,29.054 43.223,29.206 42.825,29.206 C42.427,29.206 42.029,29.054 41.725,28.75 L38.569,25.594 C37.961,24.987 37.961,24.001 38.569,23.394 C39.177,22.786 40.161,22.786 40.769,23.394 L42.825,25.449 L48.037,20.239 C48.644,19.631 49.63,19.631 50.237,20.239 C50.845,20.846 50.845,21.831 50.237,22.439 L46.702,25.974 L45.358,27.317" id="Fill-19" fill="#638FB1"></path>
            <path d="M39.669,23.563 C39.421,23.563 39.186,23.66 39.011,23.836 C38.835,24.012 38.738,24.245 38.738,24.494 C38.738,24.743 38.835,24.977 39.011,25.153 L42.167,28.309 C42.519,28.66 43.132,28.66 43.483,28.309 L49.796,21.996 C49.972,21.821 50.068,21.587 50.068,21.338 C50.068,21.09 49.972,20.856 49.796,20.68 C49.431,20.318 48.842,20.318 48.479,20.68 L43.268,25.892 C43.023,26.136 42.628,26.136 42.384,25.892 L40.327,23.836 C40.151,23.66 39.918,23.563 39.669,23.563 Z M42.825,29.831 C42.243,29.831 41.695,29.605 41.283,29.193 L38.127,26.036 C37.277,25.186 37.277,23.802 38.127,22.952 C38.951,22.127 40.388,22.128 41.211,22.952 L42.825,24.566 L47.596,19.796 C48.444,18.947 49.828,18.945 50.68,19.796 C51.092,20.208 51.318,20.756 51.318,21.338 C51.318,21.921 51.092,22.469 50.68,22.88 L44.367,29.193 C43.956,29.605 43.408,29.831 42.825,29.831 L42.825,29.831 Z" id="Fill-20" fill="#343534"></path>
            <path d="M34.347,23.577 C34.246,23.508 34.132,23.458 34.001,23.458 L12.082,23.458 C10.709,23.458 9.592,22.341 9.592,20.968 L9.592,13.962 C9.592,12.589 10.709,11.472 12.082,11.472 L41.007,11.472 C42.38,11.472 43.497,12.589 43.497,13.962 L43.497,13.997 C43.629,13.995 43.752,13.985 43.886,13.985 C44.181,13.985 44.461,14.002 44.747,14.012 L44.747,13.962 C44.747,11.9 43.069,10.222 41.007,10.222 L12.082,10.222 C10.019,10.222 8.342,11.9 8.342,13.962 L8.342,20.968 C8.342,23.03 10.019,24.708 12.082,24.708 L34.001,24.708 C34.132,24.708 34.246,24.659 34.347,24.59 L34.347,23.577" id="Fill-21" fill="#343534"></path>
        </g>
    </g>
</svg>