<?xml version="1.0" encoding="UTF-8"?>
<svg viewBox="0 0 75 32" version="1.1" xmlns="http://www.w3.org/2000/svg" xmlns:xlink="http://www.w3.org/1999/xlink">
    <defs>
        <polygon id="path-1" points="0 1.77635684e-15 74.285 1.77635684e-15 74.285 11.601 0 11.601"></polygon>
    </defs>
    <g stroke="none" stroke-width="1" fill="none" fill-rule="evenodd">
        <g id="car-class-5-vehicle_lg" transform="translate(0.000000, 0.263000)">
            <path d="M11.717,8.498 C11.717,8.498 19.914,10.069 24.119,10.163 C28.323,10.257 50.478,10.257 50.478,10.257 C50.478,10.257 54.667,9.513 60.538,10.801 C66.408,12.088 68.36,13.528 68.36,13.528 L69.338,17.041 L68.971,23.816 L66.538,24.732 L10.726,24.732 L4.383,22.959 L2.409,19.706 L2.409,17.591 L4.151,15.285 L3.972,11.173 L7.379,9.103 L11.717,8.498" id="Fill-1" fill="#638FB1"></path>
            <path d="M69.137,16.202 L66.952,16.202 C66.388,16.202 65.931,16.66 65.931,17.224 L65.931,18.806 C65.931,19.37 66.388,19.827 66.952,19.827 L68.41,19.827" id="Fill-2" fill="#FFFFFE"></path>
            <path d="M68.41,20.502 L66.952,20.502 C66.017,20.502 65.257,19.741 65.257,18.806 L65.257,17.224 C65.257,16.288 66.017,15.528 66.952,15.528 L69.137,15.528 C69.51,15.528 69.811,15.83 69.811,16.202 C69.811,16.575 69.51,16.877 69.137,16.877 L66.952,16.877 C66.762,16.877 66.606,17.032 66.606,17.224 L66.606,18.806 C66.606,18.997 66.762,19.153 66.952,19.153 L68.41,19.153 C68.783,19.153 69.085,19.454 69.085,19.827 C69.085,20.199 68.783,20.502 68.41,20.502" id="Fill-3" fill="#343534"></path>
            <path d="M4.733,15.842 L5.935,15.842 C6.567,15.842 7.08,15.385 7.08,14.821 L7.08,13.239 C7.08,12.675 6.567,12.218 5.935,12.218 L4.648,12.218" id="Fill-4" fill="#FFFFFE"></path>
            <path d="M5.935,16.517 L4.733,16.517 C4.36,16.517 4.058,16.214 4.058,15.842 C4.058,15.469 4.36,15.167 4.733,15.167 L5.935,15.167 C6.19,15.167 6.405,15.009 6.405,14.821 L6.405,13.239 C6.405,13.051 6.19,12.892 5.935,12.892 L4.648,12.892 C4.275,12.892 3.973,12.59 3.973,12.218 C3.973,11.845 4.275,11.543 4.648,11.543 L5.935,11.543 C6.938,11.543 7.755,12.303 7.755,13.239 L7.755,14.821 C7.755,15.756 6.938,16.517 5.935,16.517" id="Fill-5" fill="#343534"></path>
            <path d="M66.538,25.407 L50.945,25.407 C50.572,25.407 50.27,25.105 50.27,24.732 C50.27,24.36 50.572,24.057 50.945,24.057 L66.538,24.057 C67.598,24.057 68.462,23.194 68.462,22.133 L68.462,14.998 C68.462,14.633 68.281,14.292 67.979,14.086 L67.206,13.558 C65.478,12.379 63.496,12.022 61.397,11.645 L57.043,10.826 C56.676,10.757 56.436,10.404 56.506,10.038 C56.575,9.671 56.927,9.427 57.295,9.5 L61.636,10.316 C63.882,10.719 66.002,11.101 67.967,12.443 L68.741,12.97 C69.411,13.428 69.811,14.187 69.811,14.998 L69.811,22.133 C69.811,23.939 68.342,25.407 66.538,25.407" id="Fill-6" fill="#343534"></path>
            <path d="M48.119,25.407 L10.726,25.407 C9.643,25.407 7.123,25.148 5.926,24.524 L4.071,23.558 C2.63,22.807 1.735,21.33 1.735,19.706 L1.735,17.591 C1.735,16.492 2.471,15.564 3.476,15.271 L3.48,12.331 C3.48,10.276 4.821,8.893 7.256,8.44 L11.461,7.852 L18.152,3.084 C20.466,1.108 23.472,0 26.572,0 L40.686,0 C42.002,0 44.412,0.431 45.654,1.388 L54.278,7.312 C54.586,7.523 54.664,7.943 54.453,8.25 C54.242,8.557 53.82,8.637 53.514,8.424 L44.86,2.479 C43.97,1.795 41.994,1.35 40.686,1.35 L26.572,1.35 C23.793,1.35 21.097,2.344 18.982,4.148 L12.109,9.048 C12.021,9.111 11.919,9.151 11.811,9.166 L7.473,9.772 C4.83,10.265 4.83,11.821 4.83,12.332 L4.826,15.85 C4.826,16.222 4.524,16.525 4.151,16.525 C3.563,16.525 3.085,17.003 3.085,17.591 L3.085,19.706 C3.085,20.825 3.702,21.843 4.695,22.361 L6.549,23.327 C7.404,23.773 9.594,24.057 10.726,24.057 L48.119,24.057 C48.492,24.057 48.794,24.36 48.794,24.732 C48.794,25.105 48.492,25.407 48.119,25.407" id="Fill-7" fill="#343534"></path>
            <g id="Group-13" transform="translate(0.000000, 19.095000)">
                <mask id="mask-2" fill="white">
                    <use xlink:href="#path-1"></use>
                </mask>
                <g id="Clip-9"></g>
                <path d="M61.86,4.678 C61.86,7.261 59.766,9.354 57.182,9.354 C54.599,9.354 52.506,7.261 52.506,4.678 C52.506,2.094 54.599,1.77635684e-15 57.182,1.77635684e-15 C59.766,1.77635684e-15 61.86,2.094 61.86,4.678" id="Fill-8" fill="#FFFFFE" mask="url(#mask-2)"></path>
                <path d="M73.61,11.661 L32.565,11.661 C32.192,11.661 31.89,11.358 31.89,10.986 C31.89,10.613 32.192,10.311 32.565,10.311 L73.61,10.311 C73.983,10.311 74.285,10.613 74.285,10.986 C74.285,11.358 73.983,11.661 73.61,11.661" id="Fill-10" fill="#343534" mask="url(#mask-2)"></path>
                <path d="M28.584,11.661 L8.946,11.661 C8.573,11.661 8.271,11.358 8.271,10.986 C8.271,10.613 8.573,10.311 8.946,10.311 L28.584,10.311 C28.957,10.311 29.259,10.613 29.259,10.986 C29.259,11.358 28.957,11.661 28.584,11.661" id="Fill-11" fill="#343534" mask="url(#mask-2)"></path>
                <path d="M5.284,11.661 L0.615,11.661 C0.242,11.661 -0.06,11.358 -0.06,10.986 C-0.06,10.613 0.242,10.311 0.615,10.311 L5.284,10.311 C5.657,10.311 5.959,10.613 5.959,10.986 C5.959,11.358 5.657,11.661 5.284,11.661" id="Fill-12" fill="#343534" mask="url(#mask-2)"></path>
            </g>
            <path d="M57.075,19.767 C55.063,19.767 53.427,21.403 53.427,23.414 C53.427,25.425 55.063,27.061 57.075,27.061 C59.086,27.061 60.721,25.425 60.721,23.414 C60.721,21.403 59.086,19.767 57.075,19.767 Z M57.075,29.962 C53.464,29.962 50.526,27.025 50.526,23.414 C50.526,19.803 53.464,16.865 57.075,16.865 C60.685,16.865 63.623,19.803 63.623,23.414 C63.623,27.025 60.685,29.962 57.075,29.962 L57.075,29.962 Z" id="Fill-14" fill="#BBCFDB"></path>
            <path d="M57.169,17.723 C54.039,17.723 51.492,20.27 51.492,23.4 C51.492,26.531 54.039,29.077 57.169,29.077 C60.299,29.077 62.845,26.531 62.845,23.4 C62.845,20.27 60.299,17.723 57.169,17.723 Z M57.169,30.427 C53.295,30.427 50.142,27.275 50.142,23.4 C50.142,19.526 53.295,16.373 57.169,16.373 C61.043,16.373 64.195,19.526 64.195,23.4 C64.195,27.275 61.043,30.427 57.169,30.427 L57.169,30.427 Z" id="Fill-15" fill="#343534"></path>
            <path d="M21.816,23.773 C21.816,26.356 19.721,28.449 17.138,28.449 C14.555,28.449 12.461,26.356 12.461,23.773 C12.461,21.189 14.555,19.095 17.138,19.095 C19.721,19.095 21.816,21.189 21.816,23.773" id="Fill-16" fill="#FFFFFE"></path>
            <path d="M17.03,19.767 C15.019,19.767 13.383,21.403 13.383,23.414 C13.383,25.425 15.019,27.061 17.03,27.061 C19.041,27.061 20.677,25.425 20.677,23.414 C20.677,21.403 19.041,19.767 17.03,19.767 Z M17.03,29.962 C13.419,29.962 10.481,27.025 10.481,23.414 C10.481,19.803 13.419,16.865 17.03,16.865 C20.641,16.865 23.578,19.803 23.578,23.414 C23.578,27.025 20.641,29.962 17.03,29.962 L17.03,29.962 Z" id="Fill-17" fill="#BBCFDB"></path>
            <path d="M17.125,17.723 C13.994,17.723 11.447,20.27 11.447,23.4 C11.447,26.531 13.994,29.077 17.125,29.077 C20.255,29.077 22.801,26.531 22.801,23.4 C22.801,20.27 20.255,17.723 17.125,17.723 Z M17.125,30.427 C13.25,30.427 10.097,27.275 10.097,23.4 C10.097,19.526 13.25,16.373 17.125,16.373 C20.999,16.373 24.151,19.526 24.151,23.4 C24.151,27.275 20.999,30.427 17.125,30.427 L17.125,30.427 Z" id="Fill-18" fill="#343534"></path>
            <path d="M17.114,27.42 C14.897,27.42 13.093,25.616 13.093,23.4 C13.093,21.184 14.897,19.38 17.114,19.38 C18.733,19.38 20.187,20.344 20.818,21.835 C20.963,22.179 20.802,22.574 20.459,22.72 C20.116,22.864 19.72,22.705 19.574,22.361 C19.155,21.37 18.189,20.73 17.114,20.73 C15.641,20.73 14.443,21.928 14.443,23.4 C14.443,24.872 15.641,26.071 17.114,26.071 C18.262,26.071 19.279,25.339 19.645,24.252 C19.764,23.899 20.145,23.71 20.5,23.827 C20.853,23.947 21.044,24.329 20.925,24.683 C20.374,26.32 18.842,27.42 17.114,27.42" id="Fill-19" fill="#343534"></path>
            <path d="M57.212,27.42 C54.995,27.42 53.192,25.616 53.192,23.4 C53.192,21.184 54.995,19.38 57.212,19.38 C58.831,19.38 60.285,20.344 60.916,21.835 C61.06,22.179 60.9,22.574 60.556,22.72 C60.214,22.864 59.817,22.705 59.672,22.361 C59.253,21.37 58.287,20.73 57.212,20.73 C55.74,20.73 54.542,21.928 54.542,23.4 C54.542,24.872 55.74,26.071 57.212,26.071 C58.36,26.071 59.378,25.339 59.744,24.252 C59.862,23.899 60.246,23.71 60.599,23.827 C60.952,23.947 61.142,24.329 61.023,24.683 C60.471,26.321 58.939,27.42 57.212,27.42" id="Fill-20" fill="#343534"></path>
            <path d="M32.948,10.838 L24.119,10.838 C21.168,10.838 18.233,10.427 15.397,9.616 C15.039,9.514 14.804,9.133 14.906,8.774 C15.009,8.416 15.354,8.2 15.714,8.303 C18.483,9.095 21.293,9.489 24.119,9.489 L32.948,9.489 C33.321,9.489 33.623,9.791 33.623,10.163 C33.623,10.536 33.321,10.838 32.948,10.838" id="Fill-21" fill="#343534"></path>
            <path d="M56.891,10.838 L36.056,10.838 C35.683,10.838 35.382,10.536 35.382,10.163 C35.382,9.791 35.683,9.489 36.056,9.489 L56.891,9.489 C57.264,9.489 57.566,9.791 57.566,10.163 C57.566,10.536 57.264,10.838 56.891,10.838" id="Fill-22" fill="#343534"></path>
            <path d="M19.453,10.031 C19.354,10.031 19.254,10.009 19.16,9.964 C18.824,9.802 18.683,9.398 18.846,9.062 L21.672,3.208 C21.835,2.872 22.242,2.733 22.572,2.893 C22.908,3.055 23.049,3.459 22.886,3.795 L20.06,9.649 C19.944,9.89 19.703,10.031 19.453,10.031" id="Fill-23" fill="#343534"></path>
            <path d="M35.692,21.42 C35.319,21.42 35.017,21.117 35.017,20.745 L35.017,0.675 C35.017,0.303 35.319,0 35.692,0 C36.065,0 36.367,0.303 36.367,0.675 L36.367,20.745 C36.367,21.117 36.065,21.42 35.692,21.42" id="Fill-24" fill="#343534"></path>
            <path d="M50.418,21.596 L42.97,21.596 C42.597,21.596 42.296,21.294 42.296,20.921 C42.296,20.549 42.597,20.246 42.97,20.246 L50.418,20.246 C50.791,20.246 51.092,20.549 51.092,20.921 C51.092,21.294 50.791,21.596 50.418,21.596" id="Fill-25" fill="#343534"></path>
            <path d="M39.943,21.596 L23.087,21.596 C22.714,21.596 22.412,21.294 22.412,20.921 C22.412,20.549 22.714,20.246 23.087,20.246 L39.943,20.246 C40.316,20.246 40.618,20.549 40.618,20.921 C40.618,21.294 40.316,21.596 39.943,21.596" id="Fill-26" fill="#343534"></path>
            <path d="M24.5,13.463 L21.875,13.463 C21.502,13.463 21.2,13.16 21.2,12.788 C21.2,12.415 21.502,12.113 21.875,12.113 L24.5,12.113 C24.873,12.113 25.175,12.415 25.175,12.788 C25.175,13.16 24.873,13.463 24.5,13.463" id="Fill-27" fill="#343534"></path>
            <path d="M41.052,13.463 L38.428,13.463 C38.055,13.463 37.754,13.16 37.754,12.788 C37.754,12.415 38.055,12.113 38.428,12.113 L41.052,12.113 C41.426,12.113 41.727,12.415 41.727,12.788 C41.727,13.16 41.426,13.463 41.052,13.463" id="Fill-28" fill="#343534"></path>
        </g>
    </g>
</svg>