<?xml version="1.0" encoding="UTF-8"?>
<svg width="49px" height="40px" viewBox="0 0 49 40" version="1.1" xmlns="http://www.w3.org/2000/svg" xmlns:xlink="http://www.w3.org/1999/xlink">
    <title>alberta-student_lg</title>
    <g id="Page-1" stroke="none" stroke-width="1" fill="none" fill-rule="evenodd">
        <g id="Artboard" transform="translate(-6.000000, -9.000000)">
            <g id="alberta-student_lg" transform="translate(6.000000, 9.000000)">
                <g id="Group-4" fill="#343534">
                    <path d="M21.3026986,12.387 C20.9446986,12.387 20.6466986,12.107 20.6286986,11.746 L20.1096986,1.35 L8.99169863,1.35 C8.61969863,1.35 8.31669863,1.048 8.31669863,0.675 C8.31669863,0.302 8.61969863,0 8.99169863,0 L20.7516986,0 C21.1106986,0 21.4076986,0.282 21.4256986,0.641 L21.9776986,11.678 C21.9956986,12.051 21.7096986,12.367 21.3366986,12.386 C21.3256986,12.387 21.3136986,12.387 21.3026986,12.387" id="Fill-1"></path>
                    <path d="M22.6816986,39.959 L13.6086986,39.959 C13.3486986,39.959 13.1126986,39.81 13.0006986,39.576 L10.7556986,34.9 C10.2236986,34.497 8.53569863,33.148 8.14269863,31.968 C7.86769863,31.145 6.77369863,29.928 6.37469863,29.53 L0.230698632,24.155 C0.0716986324,24.016 -0.0133013676,23.812 0.00169863237,23.602 L1.54569863,0.63 C1.56969863,0.276 1.86369863,0 2.21869863,0 L5.99169863,0 C6.36469863,0 6.66669863,0.302 6.66669863,0.675 C6.66669863,1.048 6.36469863,1.35 5.99169863,1.35 L2.85069863,1.35 L1.37069863,23.359 L7.29669863,28.545 C7.49969863,28.745 8.99869863,30.268 9.42269863,31.542 C9.65369863,32.233 10.9356986,33.363 11.6896986,33.912 C11.7796986,33.978 11.8526986,34.065 11.9006986,34.166 L14.0336986,38.609 L21.9726986,38.609 L21.8066986,35.301 C21.7876986,34.927 22.0746986,34.611 22.4466986,34.593 C22.8166986,34.554 23.1366986,34.861 23.1546986,35.232 L23.3566986,39.25 C23.3656986,39.435 23.2986986,39.615 23.1716986,39.749 C23.0436986,39.883 22.8666986,39.959 22.6816986,39.959" id="Fill-3"></path>
                </g>
                <path d="M17.4676986,22.442 L17.4676986,29.743 C18.9856986,30.813 23.1396986,33.435 28.9956986,33.4190729 C34.7836986,33.402 38.8866986,30.816 40.4096986,29.743 C40.4096986,26.584 40.4096986,25.601 40.4096986,22.442" id="Fill-5" fill="#638FB1"></path>
                <path d="M36.3816986,32.619 C36.1156986,32.619 35.8636986,32.461 35.7566986,32.199 C35.6166986,31.854 35.7816986,31.46 36.1266986,31.319 C37.3996986,30.799 38.6116986,30.151 39.7346986,29.389 L39.7346986,22.442 C39.7346986,22.069 40.0366986,21.768 40.4096986,21.768 C40.7816986,21.768 41.0846986,22.069 41.0846986,22.442 L41.0846986,29.743 C41.0846986,29.963 40.9776986,30.168 40.7976986,30.295 C39.5126986,31.201 38.1136986,31.967 36.6366986,32.569 C36.5536986,32.603 36.4666986,32.619 36.3816986,32.619" id="Fill-6" fill="#343534"></path>
                <path d="M28.9406986,34.0930003 C23.3106986,34.094 19.0946986,31.716 17.0786986,30.295 C16.8996986,30.168 16.7926986,29.963 16.7926986,29.743 L16.7926986,22.442 C16.7926986,22.069 17.0946986,21.768 17.4676986,21.768 C17.8396986,21.768 18.1426986,22.069 18.1426986,22.442 L18.1426986,29.388 C20.1306986,30.732 23.9766986,32.788 28.9936986,32.744 C30.1306986,32.74 31.2766986,32.632 32.4016986,32.422 C32.7636986,32.355 33.1206986,32.594 33.1896986,32.961 C33.2576986,33.327 33.0166986,33.679 32.6496986,33.748 C31.4446986,33.973 30.2156986,34.09 28.9976986,34.0930003 C28.9786986,34.0930003 28.9596986,34.0930003 28.9406986,34.0930003" id="Fill-7" fill="#343534"></path>
                <path d="M37.6076986,15.327 L30.6836986,12.958 C29.5516986,12.572 28.3246986,12.572 27.1936986,12.958 L10.3576986,18.718 C9.84869863,18.893 9.84869863,19.614 10.3576986,19.788 L27.1936986,25.549 C28.3246986,25.935 29.5516986,25.935 30.6836986,25.549 L47.5186986,19.788 C48.0286986,19.614 48.0286986,18.893 47.5186986,18.718 L41.6516986,16.711" id="Fill-8" fill="#BBCFDB"></path>
                <path d="M28.9386986,26.511 C28.2736986,26.511 27.6086986,26.404 26.9746986,26.187 L10.1396986,20.427 C9.62969863,20.253 9.30069863,19.792 9.30069863,19.254 C9.30069863,18.715 9.62969863,18.254 10.1406986,18.08 L26.9746986,12.32 C28.2416986,11.886 29.6356986,11.886 30.9016986,12.32 L37.8266986,14.689 C38.1786986,14.81 38.3666986,15.194 38.2466986,15.546 C38.1256986,15.899 37.7436986,16.084 37.3886986,15.966 L30.4646986,13.597 C29.4806986,13.261 28.3966986,13.261 27.4116986,13.597 L10.8806986,19.254 L27.4126986,24.91 C28.3956986,25.246 29.4806986,25.246 30.4646986,24.91 L46.9966986,19.253 L41.4326986,17.35 C41.0806986,17.229 40.8916986,16.845 41.0126986,16.492 C41.1326986,16.14 41.5136986,15.953 41.8706986,16.073 L47.7376986,18.08 C48.2466986,18.254 48.5756986,18.715 48.5756986,19.254 C48.5756986,19.792 48.2466986,20.253 47.7366986,20.427 L30.9016986,26.187 C30.2686986,26.404 29.6036986,26.511 28.9386986,26.511" id="Fill-9" fill="#343534"></path>
                <line x1="45.0656986" y1="20.628" x2="45.0656986" y2="27.064" id="Fill-10" fill="#BBCFDB"></line>
                <path d="M45.0656986,27.739 C44.6926986,27.739 44.3906986,27.437 44.3906986,27.064 L44.3906986,20.628 C44.3906986,20.255 44.6926986,19.953 45.0656986,19.953 C45.4376986,19.953 45.7406986,20.255 45.7406986,20.628 L45.7406986,27.064 C45.7406986,27.437 45.4376986,27.739 45.0656986,27.739" id="Fill-11" fill="#343534"></path>
                <path d="M46.6586986,28.627 C46.6586986,29.489 45.9586986,30.189 45.0956986,30.189 C44.2326986,30.189 43.5336986,29.489 43.5336986,28.627 C43.5336986,27.763 44.2326986,27.064 45.0956986,27.064 C45.9586986,27.064 46.6586986,27.763 46.6586986,28.627" id="Fill-12" fill="#BBCFDB"></path>
                <path d="M45.0956986,27.739 C44.6066986,27.739 44.2086986,28.137 44.2086986,28.627 C44.2086986,29.116 44.6066986,29.513 45.0956986,29.513 C45.5856986,29.513 45.9826986,29.116 45.9826986,28.627 C45.9826986,28.137 45.5856986,27.739 45.0956986,27.739 Z M45.0956986,30.863 C43.8626986,30.863 42.8586986,29.86 42.8586986,28.627 C42.8586986,27.393 43.8626986,26.389 45.0956986,26.389 C46.3296986,26.389 47.3326986,27.393 47.3326986,28.627 C47.3326986,29.86 46.3296986,30.863 45.0956986,30.863 L45.0956986,30.863 Z" id="Fill-13" fill="#343534"></path>
            </g>
        </g>
    </g>
</svg>