<?xml version="1.0" encoding="UTF-8"?>
<svg viewBox="0 0 41 24" version="1.1" xmlns="http://www.w3.org/2000/svg" xmlns:xlink="http://www.w3.org/1999/xlink">
    <g stroke="none" stroke-width="1" fill="none" fill-rule="evenodd">
        <g id="alberta-student_lg" transform="translate(0.300699, -0.005500)">
            <path d="M8.167,10.4475 L8.167,17.7485 C9.685,18.8185 13.839,21.4405 19.695,21.4245729 C25.483,21.4075 29.586,18.8215 31.109,17.7485 C31.109,14.5895 31.109,13.6065 31.109,10.4475" id="Fill-5" fill="#638FB1"></path>
            <path d="M27.081,20.6245 C26.815,20.6245 26.563,20.4665 26.456,20.2045 C26.316,19.8595 26.481,19.4655 26.826,19.3245 C28.099,18.8045 29.311,18.1565 30.434,17.3945 L30.434,10.4475 C30.434,10.0745 30.736,9.7735 31.109,9.7735 C31.481,9.7735 31.784,10.0745 31.784,10.4475 L31.784,17.7485 C31.784,17.9685 31.677,18.1735 31.497,18.3005 C30.212,19.2065 28.813,19.9725 27.336,20.5745 C27.253,20.6085 27.166,20.6245 27.081,20.6245" id="Fill-6" fill="#343534"></path>
            <path d="M19.64,22.0985003 C14.01,22.0995 9.794,19.7215 7.778,18.3005 C7.599,18.1735 7.492,17.9685 7.492,17.7485 L7.492,10.4475 C7.492,10.0745 7.794,9.7735 8.167,9.7735 C8.539,9.7735 8.842,10.0745 8.842,10.4475 L8.842,17.3935 C10.83,18.7375 14.676,20.7935 19.693,20.7495 C20.83,20.7455 21.976,20.6375 23.101,20.4275 C23.463,20.3605 23.82,20.5995 23.889,20.9665 C23.957,21.3325 23.716,21.6845 23.349,21.7535 C22.144,21.9785 20.915,22.0955 19.697,22.0985003 C19.678,22.0985003 19.659,22.0985003 19.64,22.0985003" id="Fill-7" fill="#343534"></path>
            <path d="M28.307,3.3325 L21.383,0.9635 C20.251,0.5775 19.024,0.5775 17.893,0.9635 L1.057,6.7235 C0.548,6.8985 0.548,7.6195 1.057,7.7935 L17.893,13.5545 C19.024,13.9405 20.251,13.9405 21.383,13.5545 L38.218,7.7935 C38.728,7.6195 38.728,6.8985 38.218,6.7235 L32.351,4.7165" id="Fill-8" fill="#BBCFDB"></path>
            <path d="M19.638,14.5165 C18.973,14.5165 18.308,14.4095 17.674,14.1925 L0.839,8.4325 C0.329,8.2585 0,7.7975 0,7.2595 C0,6.7205 0.329,6.2595 0.84,6.0855 L17.674,0.3255 C18.941,-0.1085 20.335,-0.1085 21.601,0.3255 L28.526,2.6945 C28.878,2.8155 29.066,3.1995 28.946,3.5515 C28.825,3.9045 28.443,4.0895 28.088,3.9715 L21.164,1.6025 C20.18,1.2665 19.096,1.2665 18.111,1.6025 L1.58,7.2595 L18.112,12.9155 C19.095,13.2515 20.18,13.2515 21.164,12.9155 L37.696,7.2585 L32.132,5.3555 C31.78,5.2345 31.591,4.8505 31.712,4.4975 C31.832,4.1455 32.213,3.9585 32.57,4.0785 L38.437,6.0855 C38.946,6.2595 39.275,6.7205 39.275,7.2595 C39.275,7.7975 38.946,8.2585 38.436,8.4325 L21.601,14.1925 C20.968,14.4095 20.303,14.5165 19.638,14.5165" id="Fill-9" fill="#343534"></path>
            <line x1="35.765" y1="8.6335" x2="35.765" y2="15.0695" id="Fill-10" fill="#BBCFDB"></line>
            <path d="M35.765,15.7445 C35.392,15.7445 35.09,15.4425 35.09,15.0695 L35.09,8.6335 C35.09,8.2605 35.392,7.9585 35.765,7.9585 C36.137,7.9585 36.44,8.2605 36.44,8.6335 L36.44,15.0695 C36.44,15.4425 36.137,15.7445 35.765,15.7445" id="Fill-11" fill="#343534"></path>
            <path d="M37.358,16.6325 C37.358,17.4945 36.658,18.1945 35.795,18.1945 C34.932,18.1945 34.233,17.4945 34.233,16.6325 C34.233,15.7685 34.932,15.0695 35.795,15.0695 C36.658,15.0695 37.358,15.7685 37.358,16.6325" id="Fill-12" fill="#BBCFDB"></path>
            <path d="M35.795,15.7445 C35.306,15.7445 34.908,16.1425 34.908,16.6325 C34.908,17.1215 35.306,17.5185 35.795,17.5185 C36.285,17.5185 36.682,17.1215 36.682,16.6325 C36.682,16.1425 36.285,15.7445 35.795,15.7445 Z M35.795,18.8685 C34.562,18.8685 33.558,17.8655 33.558,16.6325 C33.558,15.3985 34.562,14.3945 35.795,14.3945 C37.029,14.3945 38.032,15.3985 38.032,16.6325 C38.032,17.8655 37.029,18.8685 35.795,18.8685 L35.795,18.8685 Z" id="Fill-13" fill="#343534"></path>
        </g>
    </g>
</svg>