<?xml version="1.0" encoding="UTF-8"?>
<svg width="90px" height="90px" viewBox="0 0 90 90" version="1.1" xmlns="http://www.w3.org/2000/svg" xmlns:xlink="http://www.w3.org/1999/xlink">
    <title>Large Icons</title>
    <defs>
        <polygon id="path-1" points="0 0.435 76.294 0.435 76.294 51.94 0 51.94"></polygon>
    </defs>
    <g id="Large-Icons" stroke="none" stroke-width="1" fill="none" fill-rule="evenodd">
        <g id="home-key-lock-out_lg" transform="translate(8.000000, 15.000000)">
            <path d="M39.584,46.46 L57.709,28.158 C57.709,28.158 65.418,30.894 69.895,26.915 C74.917,22.451 72.63,15.226 71.636,12.49 C71.636,12.49 76.63,20.119 74.868,25.174 C73.56,28.929 68.294,32.645 62.097,31.987 L58.157,35.927 L55.438,35.927 L55.438,38.647 L53.557,40.528 L50.837,40.528 L50.837,43.248 L47.795,46.29 L39.584,46.46" id="Fill-1" fill="#BBCFDB"></path>
            <polyline id="Fill-3" fill="#BBCFDB" points="20.519 9.532 6.696 25.545 2.247 25.206 17.135 7.298 19.182 7.989 20.519 9.532"></polyline>
            <path d="M48.314,6.176 L46.166,6.176 L46.166,13.794 L40.505,13.794 L36.633,9.028 L36.728,6.176 L17.709,6.176 L33.618,25.176 L53.328,25.176 C53.328,25.176 53.002,17.065 54.972,14.368 L50.487,8.365" id="Fill-4" fill="#BBCFDB"></path>
            <path d="M53.328,57 L45.305,57 C44.933,57 44.63,56.698 44.63,56.325 C44.63,55.953 44.933,55.65 45.305,55.65 L53.328,55.65 C53.701,55.65 54.003,55.953 54.003,56.325 C54.003,56.698 53.701,57 53.328,57" id="Fill-5" fill="#343534"></path>
            <path d="M40.23,57 L8.812,57 C8.439,57 8.137,56.698 8.137,56.325 C8.137,55.953 8.439,55.65 8.812,55.65 L40.23,55.65 C40.603,55.65 40.905,55.953 40.905,56.325 C40.905,56.698 40.603,57 40.23,57" id="Fill-6" fill="#343534"></path>
            <polygon id="Fill-7" fill="#638FB1" points="13.953 50.541 25.393 50.541 25.393 38.292 13.953 38.292"></polygon>
            <path d="M25.393,51.215 C25.021,51.215 24.718,50.914 24.718,50.541 L24.718,32.179 C24.718,29.398 22.455,27.134 19.673,27.134 C16.892,27.134 14.628,29.398 14.628,32.179 L14.628,48.607 C14.628,48.979 14.326,49.282 13.953,49.282 C13.58,49.282 13.278,48.979 13.278,48.607 L13.278,32.179 C13.278,28.653 16.147,25.785 19.673,25.785 C23.199,25.785 26.068,28.653 26.068,32.179 L26.068,50.541 C26.068,50.914 25.766,51.215 25.393,51.215" id="Fill-8" fill="#343534"></path>
            <path d="M23.099,41.601 C23.099,42.178 22.631,42.645 22.055,42.645 C21.478,42.645 21.01,42.178 21.01,41.601 C21.01,41.025 21.478,40.557 22.055,40.557 C22.631,40.557 23.099,41.025 23.099,41.601" id="Fill-9" fill="#343534"></path>
            <path d="M24.688,38.595 L13.953,38.595 C13.58,38.595 13.278,38.294 13.278,37.92 C13.278,37.549 13.58,37.246 13.953,37.246 L24.688,37.246 C25.061,37.246 25.363,37.549 25.363,37.92 C25.363,38.294 25.061,38.595 24.688,38.595" id="Fill-10" fill="#343534"></path>
            <path d="M19.673,37.619 C19.301,37.619 18.998,37.317 18.998,36.944 L18.998,26.95 C18.998,26.578 19.301,26.275 19.673,26.275 C20.046,26.275 20.348,26.578 20.348,26.95 L20.348,36.944 C20.348,37.317 20.046,37.619 19.673,37.619" id="Fill-11" fill="#343534"></path>
            <path d="M7.169,25.88 L2.247,25.88 C1.986,25.88 1.749,25.731 1.637,25.496 C1.525,25.261 1.559,24.982 1.723,24.78 L17.185,5.751 C17.442,5.435 17.976,5.435 18.233,5.751 L27.105,16.67 C27.34,16.96 27.296,17.384 27.007,17.62 C26.718,17.855 26.293,17.812 26.058,17.522 L17.709,7.247 L3.665,24.531 L7.169,24.531 C7.541,24.531 7.844,24.833 7.844,25.206 C7.844,25.578 7.541,25.88 7.169,25.88" id="Fill-12" fill="#343534"></path>
            <path d="M33.172,25.88 C32.975,25.88 32.78,25.795 32.647,25.63 L28.091,20.007 C27.856,19.717 27.901,19.292 28.19,19.057 C28.48,18.821 28.905,18.868 29.14,19.157 L33.696,24.781 C33.931,25.07 33.886,25.496 33.596,25.73 C33.471,25.832 33.321,25.88 33.172,25.88" id="Fill-13" fill="#343534"></path>
            <path d="M32.615,6.851 L17.709,6.851 C17.336,6.851 17.034,6.549 17.034,6.176 C17.034,5.804 17.336,5.502 17.709,5.502 L32.615,5.502 C32.987,5.502 33.29,5.804 33.29,6.176 C33.29,6.549 32.987,6.851 32.615,6.851" id="Fill-14" fill="#343534"></path>
            <path d="M7.101,25.88 C6.95,25.88 6.797,25.83 6.671,25.726 C6.384,25.488 6.344,25.062 6.582,24.775 L16.615,12.662 C16.853,12.376 17.278,12.335 17.565,12.573 C17.852,12.811 17.892,13.236 17.655,13.524 L7.622,25.636 C7.488,25.797 7.295,25.88 7.101,25.88" id="Fill-15" fill="#343534"></path>
            <path d="M6.696,51.712 C6.323,51.712 6.021,51.411 6.021,51.038 L6.021,40.593 C6.021,40.22 6.323,39.919 6.696,39.919 C7.068,39.919 7.371,40.22 7.371,40.593 L7.371,51.038 C7.371,51.411 7.068,51.712 6.696,51.712" id="Fill-16" fill="#343534"></path>
            <path d="M6.696,37.924 C6.323,37.924 6.021,37.623 6.021,37.25 L6.021,25.545 C6.021,25.172 6.323,24.87 6.696,24.87 C7.068,24.87 7.371,25.172 7.371,25.545 L7.371,37.25 C7.371,37.623 7.068,37.924 6.696,37.924" id="Fill-17" fill="#343534"></path>
            <path d="M33.618,48.48 C33.246,48.48 32.943,48.177 32.943,47.805 L32.943,30.314 C32.943,29.941 33.246,29.639 33.618,29.639 C33.991,29.639 34.293,29.941 34.293,30.314 L34.293,47.805 C34.293,48.177 33.991,48.48 33.618,48.48" id="Fill-18" fill="#343534"></path>
            <path d="M54.973,15.044 C54.776,15.044 54.581,14.959 54.448,14.795 L47.994,6.851 L46.166,6.851 C45.794,6.851 45.491,6.549 45.491,6.176 C45.491,5.804 45.794,5.502 46.166,5.502 L48.315,5.502 C48.519,5.502 48.711,5.593 48.839,5.751 L55.496,13.943 C55.73,14.233 55.687,14.657 55.397,14.893 C55.272,14.994 55.122,15.044 54.973,15.044" id="Fill-19" fill="#343534"></path>
            <path d="M47.098,25.88 L33.171,25.88 C32.799,25.88 32.497,25.578 32.497,25.206 C32.497,24.833 32.799,24.531 33.171,24.531 L47.098,24.531 C47.471,24.531 47.772,24.833 47.772,25.206 C47.772,25.578 47.471,25.88 47.098,25.88" id="Fill-20" fill="#343534"></path>
            <path d="M59.347,51.382 C58.974,51.382 58.672,51.079 58.672,50.707 L58.672,39.436 C58.672,39.063 58.974,38.761 59.347,38.761 C59.719,38.761 60.021,39.063 60.021,39.436 L60.021,50.707 C60.021,51.079 59.719,51.382 59.347,51.382" id="Fill-21" fill="#343534"></path>
            <path d="M40.827,13.12 L45.491,13.12 L45.491,1.477 L37.451,1.477 L37.375,8.872 L40.827,13.12 Z M46.166,14.469 L40.505,14.469 C40.302,14.469 40.11,14.378 39.981,14.22 L36.109,9.455 C35.938,9.244 35.915,8.962 36.026,8.733 L36.108,0.796 C36.112,0.425 36.413,0.128 36.783,0.128 L46.166,0.128 C46.539,0.128 46.841,0.43 46.841,0.802 L46.841,13.795 C46.841,14.167 46.539,14.469 46.166,14.469 L46.166,14.469 Z" id="Fill-22" fill="#343534"></path>
            <g id="Group-27">
                <mask id="mask-2" fill="white">
                    <use xlink:href="#path-1"></use>
                </mask>
                <g id="Clip-24"></g>
                <path d="M41,9.626 C40.627,9.626 40.325,9.324 40.325,8.951 L40.325,1.11 C40.325,0.737 40.627,0.435 41,0.435 C41.373,0.435 41.675,0.737 41.675,1.11 L41.675,8.951 C41.675,9.324 41.373,9.626 41,9.626" id="Fill-23" fill="#343534" mask="url(#mask-2)"></path>
                <path d="M65.45,51.94 L0.675,51.94 C0.302,51.94 0,51.637 0,51.265 C0,50.892 0.302,50.59 0.675,50.59 L65.45,50.59 C65.823,50.59 66.125,50.892 66.125,51.265 C66.125,51.637 65.823,51.94 65.45,51.94" id="Fill-25" fill="#343534" mask="url(#mask-2)"></path>
                <path d="M39.584,47.134 C39.406,47.134 39.234,47.063 39.107,46.936 C38.977,46.806 38.906,46.629 38.9098397,46.445 L39.08,38.235 C39.083,38.061 39.154,37.895 39.277,37.771 L53.316,23.733 C52.513,19.875 53.675,15.946 56.464,13.157 C60.992,8.629 68.36,8.629 72.888,13.157 C75.733,16.002 76.896,20.045 75.995,23.973 C75.913,24.337 75.553,24.566 75.186,24.48 C74.823,24.397 74.597,24.035 74.68,23.671 C75.475,20.2 74.448,16.626 71.934,14.111 C69.995,12.173 67.418,11.105 64.676,11.105 C61.935,11.105 59.357,12.173 57.419,14.111 C54.874,16.655 53.863,20.273 54.713,23.789 C54.769,24.017 54.7,24.258 54.534,24.425 L40.424,38.534 L40.274,45.77 L47.51,45.62 L50.162,42.968 L50.162,40.528 C50.162,40.156 50.465,39.853 50.837,39.853 L53.276,39.853 L54.764,38.367 L54.764,35.927 C54.764,35.554 55.065,35.253 55.438,35.253 L57.878,35.253 L61.62,31.509 C61.786,31.343 62.026,31.276 62.256,31.331 C65.77,32.181 69.39,31.17 71.934,28.626 C72.197,28.363 72.625,28.363 72.888,28.626 C73.151,28.89 73.151,29.317 72.888,29.581 C70.1,32.37 66.174,33.531 62.312,32.727 L58.635,36.405 C58.508,36.531 58.337,36.602 58.157,36.602 L56.113,36.602 L56.113,38.647 C56.113,38.826 56.042,38.998 55.915,39.125 L54.033,41.005 C53.907,41.133 53.735,41.203 53.557,41.203 L51.512,41.203 L51.512,43.248 C51.512,43.427 51.441,43.598 51.314,43.725 L48.272,46.767 C48.149,46.89 47.983,46.961 47.81,46.965 L39.599,47.134 C39.594,47.134 39.589,47.134 39.584,47.134" id="Fill-26" fill="#343534" mask="url(#mask-2)"></path>
            </g>
            <path d="M44.336,42.383 C44.163,42.383 43.99,42.317 43.859,42.185 C43.596,41.923 43.596,41.495 43.859,41.231 L46.962,38.128 C47.226,37.864 47.654,37.864 47.917,38.128 C48.181,38.391 48.181,38.819 47.917,39.083 L44.813,42.185 C44.682,42.317 44.509,42.383 44.336,42.383" id="Fill-28" fill="#343534"></path>
            <path d="M49.081,37.638 C48.908,37.638 48.735,37.572 48.604,37.44 C48.34,37.177 48.34,36.75 48.604,36.486 L56.342,28.749 C56.604,28.486 57.032,28.486 57.296,28.749 C57.56,29.012 57.56,29.44 57.296,29.704 L49.558,37.441 C49.427,37.572 49.254,37.638 49.081,37.638" id="Fill-29" fill="#343534"></path>
            <path d="M66.893,22.961 C65.918,22.961 64.941,22.589 64.198,21.846 C63.696,21.343 63.345,20.713 63.183,20.024 C63.098,19.661 63.323,19.298 63.685,19.212 C64.05,19.127 64.412,19.353 64.497,19.715 C64.602,20.16 64.828,20.566 65.153,20.892 C66.112,21.851 67.675,21.851 68.634,20.892 C69.1,20.426 69.355,19.808 69.355,19.151 C69.355,18.493 69.1,17.876 68.635,17.411 C67.704,16.48 66.083,16.481 65.153,17.41 C64.89,17.674 64.463,17.674 64.199,17.411 C63.936,17.147 63.936,16.72 64.198,16.456 C65.638,15.016 68.149,15.016 69.589,16.456 C70.309,17.175 70.705,18.133 70.705,19.151 C70.705,20.169 70.309,21.126 69.589,21.846 C68.846,22.589 67.87,22.961 66.893,22.961" id="Fill-30" fill="#343534"></path>
        </g>
    </g>
</svg>