<?xml version="1.0" encoding="UTF-8"?>
<svg width="90px" height="60px" viewBox="0 0 90 60" version="1.1" xmlns="http://www.w3.org/2000/svg" xmlns:xlink="http://www.w3.org/1999/xlink">
    <title>Large Icons</title>
    <defs>
        <polygon id="path-1" points="0.06 0.318571537 38.868 0.318571537 38.868 10 0.06 10"></polygon>
    </defs>
    <g id="Large-Icons" stroke="none" stroke-width="1" fill="none" fill-rule="evenodd">
        <g id="palm-tree-beach-vacation_lg" transform="translate(27.500000, 7.000000)">
            <g id="Group-6" transform="translate(2.000000, 0.000000)">
                <path d="M2.201,40.015 C2.201,40.015 5.896,30.983 18.11,32.317 C30.324,33.651 32.582,40.22 32.582,40.22 L28.681,39.604 C28.681,39.604 26.628,38.373 25.602,38.783 C24.576,39.194 23.96,40.528 22.01,40.22 C20.06,39.912 20.368,38.373 18.007,38.475 C15.647,38.578 14.415,40.015 13.286,40.015 C12.157,40.015 9.796,37.859 8.257,38.065 C6.717,38.27 4.973,40.63 2.201,40.015" id="Fill-1" fill="#638FB1"></path>
                <path d="M3.125,15.69 L11.952,10.045 L12.259,9.327 C12.259,9.327 22.215,16.716 22.112,16.101 C22.01,15.485 22.318,11.277 17.186,8.198 L15.955,7.993 L23.139,2.861 C23.139,2.861 16.878,-0.732 12.567,6.556 C12.567,6.556 14.312,1.732 9.181,1.219 L5.588,1.937 L7.949,4.811 C7.949,4.811 4.049,2.963 0.046,6.761 L8.462,8.095 C8.462,8.095 2.817,9.84 3.125,15.69" id="Fill-3" fill="#BBCFDB"></path>
                <path d="M12.678,8.325 C12.592,8.325 12.505,8.309 12.421,8.274 C12.076,8.132 11.913,7.737 12.055,7.393 C14.144,2.341 18.588,0.359 23.374,2.337 C23.606,2.433 23.765,2.648 23.788,2.897 C23.812,3.146 23.695,3.389 23.486,3.525 L18.548,6.759 C18.237,6.963 17.818,6.875 17.614,6.564 C17.41,6.252 17.497,5.834 17.809,5.63 L21.58,3.16 C18.016,2.274 14.916,4.01 13.302,7.908 C13.195,8.169 12.943,8.325 12.678,8.325" id="Fill-4" fill="#343534"></path>
                <path d="M12.745,6.873 C12.686,6.873 12.626,6.865 12.566,6.85 C12.206,6.751 11.995,6.38 12.093,6.019 C12.417,4.838 12.009,3.594 11.028,2.774 C9.755,1.712 7.895,1.604 6.049,2.488 C5.712,2.648 5.309,2.506 5.149,2.17 C4.988,1.834 5.13,1.431 5.466,1.269 C7.801,0.152 10.205,0.327 11.894,1.738 C13.285,2.901 13.86,4.678 13.395,6.377 C13.313,6.677 13.041,6.873 12.745,6.873" id="Fill-5" fill="#343534"></path>
            </g>
            <path d="M6.688,8.002 C6.674,8.002 6.661,8.002 6.648,8.001 L1.864,7.723 C1.596,7.707 1.363,7.535 1.27,7.283 C1.177,7.032 1.241,6.749 1.434,6.563 C5.263,2.864 11.387,2.971 15.086,6.801 C15.345,7.068 15.338,7.496 15.069,7.755 C14.801,8.015 14.375,8.008 14.115,7.738 C11.337,4.862 6.973,4.429 3.717,6.478 L6.726,6.653 C7.098,6.675 7.382,6.994 7.361,7.366 C7.34,7.726 7.043,8.002 6.688,8.002" id="Fill-7" fill="#343534"></path>
            <path d="M4.936,16.508 C4.819,16.508 4.703,16.478 4.598,16.417 C4.375,16.288 4.244,16.042 4.263,15.785 C4.644,10.475 9.268,6.448 14.583,6.845 C14.955,6.871 15.234,7.194 15.208,7.565 C15.181,7.937 14.864,8.234 14.486,8.19 C10.425,7.917 6.828,10.594 5.85,14.404 L10.132,11.52 C10.442,11.312 10.862,11.393 11.069,11.702 C11.277,12.011 11.196,12.431 10.886,12.639 L5.313,16.393 C5.199,16.47 5.068,16.508 4.936,16.508" id="Fill-8" fill="#343534"></path>
            <path d="M24.342,16.845 C24.203,16.845 24.064,16.802 23.947,16.717 L16,10.972 C15.698,10.753 15.63,10.331 15.849,10.029 C16.067,9.727 16.489,9.658 16.791,9.878 L23.482,14.715 C23.125,13.072 22.278,11.581 21.022,10.414 C19.397,8.905 17.274,8.11 15.063,8.201 C14.694,8.2 14.377,7.924 14.364,7.551 C14.35,7.179 14.641,6.865 15.013,6.852 C20.34,6.676 24.821,10.825 25.017,16.145 C25.027,16.403 24.888,16.643 24.661,16.766 C24.561,16.818 24.451,16.845 24.342,16.845" id="Fill-9" fill="#343534"></path>
            <path d="M13.229,33.432 C12.985,33.432 12.751,33.3 12.63,33.069 C7.44,23.106 13.791,8.217 14.064,7.588 C14.212,7.246 14.61,7.089 14.952,7.237 C15.293,7.386 15.451,7.783 15.302,8.125 C15.238,8.273 8.936,23.057 13.827,32.446 C14,32.776 13.871,33.184 13.541,33.356 C13.441,33.408 13.334,33.432 13.229,33.432" id="Fill-10" fill="#343534"></path>
            <path d="M34.008,40.162 C33.815,40.162 33.624,40.08 33.49,39.919 C27.498,32.733 18.318,30.752 10.65,34.986 C10.323,35.167 9.913,35.047 9.733,34.721 C9.553,34.395 9.671,33.984 9.998,33.804 C18.249,29.248 28.106,31.357 34.527,39.054 C34.765,39.34 34.727,39.766 34.44,40.005 C34.314,40.111 34.161,40.162 34.008,40.162" id="Fill-11" fill="#343534"></path>
            <g id="Group-18" transform="translate(0.000000, 35.000000)">
                <mask id="mask-2" fill="white">
                    <use xlink:href="#path-1"></use>
                </mask>
                <g id="Clip-13"></g>
                <path d="M4.239,5.162 C4.087,5.162 3.933,5.111 3.807,5.005 C3.521,4.766 3.482,4.341 3.721,4.054 C4.856,2.693 6.115,1.483 7.464,0.457 C7.76,0.23 8.183,0.289 8.41,0.584 C8.635,0.881 8.578,1.305 8.281,1.531 C7.014,2.496 5.828,3.635 4.758,4.919 C4.624,5.08 4.432,5.162 4.239,5.162" id="Fill-12" fill="#343534" mask="url(#mask-2)"></path>
                <path d="M33.496,5.866 C32.105,5.866 31.388,5.35 30.756,4.894 C30.2,4.494 29.76,4.177 28.805,4.177 C27.851,4.177 27.412,4.494 26.856,4.894 C26.224,5.35 25.507,5.866 24.117,5.866 C22.728,5.866 22.011,5.35 21.379,4.894 C20.823,4.494 20.384,4.177 19.429,4.177 C18.698,4.177 18.288,4.367 17.953,4.571 C17.636,4.765 17.219,4.664 17.025,4.346 C16.831,4.028 16.931,3.613 17.25,3.418 C17.919,3.009 18.591,2.828 19.429,2.828 C20.819,2.828 21.536,3.343 22.168,3.799 C22.724,4.2 23.163,4.516 24.117,4.516 C25.071,4.516 25.511,4.2 26.067,3.799 C26.699,3.343 27.416,2.828 28.805,2.828 C30.196,2.828 30.913,3.343 31.544,3.799 C32.101,4.2 32.541,4.516 33.496,4.516 C34.453,4.516 34.892,4.2 35.45,3.798 C36.084,3.343 36.801,2.828 38.193,2.828 C38.565,2.828 38.868,3.129 38.868,3.502 C38.868,3.875 38.565,4.177 38.193,4.177 C37.236,4.177 36.796,4.494 36.238,4.895 C35.605,5.35 34.887,5.866 33.496,5.866" id="Fill-14" fill="#343534" mask="url(#mask-2)"></path>
                <path d="M14.74,5.866 C13.35,5.866 12.633,5.35 12.001,4.894 C11.445,4.494 11.005,4.177 10.051,4.177 C9.097,4.177 8.657,4.494 8.101,4.894 C7.469,5.35 6.752,5.866 5.362,5.866 C3.972,5.866 3.256,5.35 2.624,4.894 C2.068,4.494 1.629,4.177 0.675,4.177 C0.302,4.177 0,3.875 0,3.502 C0,3.129 0.302,2.828 0.675,2.828 C2.065,2.828 2.781,3.343 3.413,3.799 C3.969,4.2 4.408,4.516 5.362,4.516 C6.316,4.516 6.756,4.2 7.312,3.799 C7.944,3.343 8.661,2.828 10.051,2.828 C11.441,2.828 12.158,3.343 12.79,3.799 C13.346,4.2 13.786,4.516 14.74,4.516 C15.113,4.516 15.415,4.818 15.415,5.191 C15.415,5.564 15.113,5.866 14.74,5.866" id="Fill-15" fill="#343534" mask="url(#mask-2)"></path>
                <path d="M33.496,10 C32.105,10 31.388,9.485 30.756,9.029 C30.2,8.628 29.76,8.312 28.805,8.312 C27.852,8.312 27.413,8.628 26.857,9.029 C26.751,9.105 26.646,9.18 26.538,9.254 C26.229,9.463 25.809,9.383 25.6,9.075 C25.39,8.767 25.471,8.347 25.779,8.137 L26.067,7.933 C26.7,7.478 27.417,6.962 28.805,6.962 C30.196,6.962 30.913,7.478 31.544,7.934 C32.101,8.334 32.541,8.651 33.496,8.651 C33.868,8.651 34.171,8.953 34.171,9.326 C34.171,9.699 33.868,10 33.496,10" id="Fill-16" fill="#343534" mask="url(#mask-2)"></path>
                <path d="M14.74,10 C13.35,10 12.633,9.485 12.001,9.029 C11.445,8.628 11.005,8.312 10.051,8.312 C9.097,8.312 8.657,8.628 8.101,9.029 C7.469,9.485 6.752,10 5.362,10 C4.989,10 4.687,9.699 4.687,9.326 C4.687,8.953 4.989,8.651 5.362,8.651 C6.316,8.651 6.756,8.334 7.312,7.934 C7.944,7.478 8.661,6.962 10.051,6.962 C11.441,6.962 12.158,7.478 12.79,7.934 C13.346,8.334 13.786,8.651 14.74,8.651 C15.695,8.651 16.134,8.334 16.69,7.934 C17.323,7.478 18.04,6.962 19.429,6.962 C20.819,6.962 21.536,7.478 22.168,7.934 C22.598,8.243 22.968,8.51 23.568,8.609 C23.937,8.669 24.186,9.016 24.125,9.384 C24.065,9.752 23.71,9.995 23.35,9.941 C22.437,9.791 21.875,9.386 21.379,9.029 C20.823,8.628 20.384,8.312 19.429,8.312 C18.475,8.312 18.036,8.628 17.48,9.029 C16.847,9.485 16.131,10 14.74,10" id="Fill-17" fill="#343534" mask="url(#mask-2)"></path>
            </g>
            <path d="M32.046,25.502 C29.333,25.502 27.125,23.295 27.125,20.581 C27.125,17.867 29.333,15.66 32.046,15.66 C33.151,15.66 34.195,16.018 35.065,16.694 C35.359,16.924 35.413,17.348 35.183,17.642 C34.955,17.937 34.531,17.99 34.236,17.761 C33.605,17.269 32.848,17.01 32.046,17.01 C30.077,17.01 28.474,18.612 28.474,20.581 C28.474,22.55 30.077,24.152 32.046,24.152 C34.014,24.152 35.617,22.55 35.617,20.581 C35.617,20.208 35.918,19.906 36.292,19.906 C36.664,19.906 36.966,20.208 36.966,20.581 C36.966,23.295 34.759,25.502 32.046,25.502" id="Fill-19" fill="#343534"></path>
            <path d="M17.339,32.274 C17.13,32.274 16.924,32.177 16.792,31.995 C15.637,30.397 14.729,28.298 14.089,25.758 C13.999,25.395 14.218,25.029 14.58,24.938 C14.939,24.84 15.308,25.066 15.399,25.428 C15.996,27.802 16.833,29.746 17.886,31.204 C18.105,31.506 18.036,31.928 17.735,32.146 C17.615,32.233 17.477,32.274 17.339,32.274" id="Fill-20" fill="#343534"></path>
            <path d="M14.257,23.949 C13.935,23.949 13.649,23.718 13.593,23.389 C12.46,16.79 13.177,10.061 13.209,9.778 C13.25,9.407 13.581,9.14 13.953,9.181 C14.324,9.222 14.591,9.555 14.55,9.925 C14.543,9.993 13.823,16.754 14.923,23.16 C14.987,23.527 14.74,23.877 14.373,23.939 C14.334,23.946 14.295,23.949 14.257,23.949" id="Fill-21" fill="#343534"></path>
        </g>
    </g>
</svg>