<?xml version="1.0" encoding="UTF-8"?>
<svg viewBox="0 0 55 50" version="1.1" xmlns="http://www.w3.org/2000/svg" xmlns:xlink="http://www.w3.org/1999/xlink">
    <defs>
        <polygon id="path-1" points="0 3.55271368e-15 54.502 3.55271368e-15 54.502 21.341 0 21.341"></polygon>
        <polygon id="path-3" points="0 3.55271368e-15 27.261 3.55271368e-15 27.261 17.579 0 17.579"></polygon>
    </defs>
    <g stroke="none" stroke-width="1" fill="none" fill-rule="evenodd">
        <g id="business-building_lg" transform="translate(-0.000000, 0.595000)">
            <path d="M37.475,40.621 C35.78,39.698 34.613,37.692 34.613,34.946 C34.613,31.104 39.72,23.649 39.72,23.649 C39.72,23.649 44.825,31.104 44.825,34.946 C44.825,38.538 42.829,40.865 40.267,41.154" id="Fill-1" fill="#BBCFDB"></path>
            <polygon id="Fill-2" fill="#BBCFDB" points="14.046 47.263 24.257 47.263 24.257 37.294 14.046 37.294"></polygon>
            <polygon id="Fill-3" fill="#638FB1" points="9.184 14.396 14.333 14.396 14.333 10.551 9.184 10.551"></polygon>
            <polygon id="Fill-4" fill="#638FB1" points="23.985 22.722 28.098 22.722 28.098 18.878 23.985 18.878"></polygon>
            <polygon id="Fill-5" fill="#638FB1" points="9.884 22.722 13.998 22.722 13.998 18.878 9.884 18.878"></polygon>
            <polygon id="Fill-6" fill="#638FB1" points="16.813 30.807 20.926 30.807 20.926 26.962 16.813 26.962"></polygon>
            <g id="Group-12" transform="translate(0.000000, 27.023000)">
                <mask id="mask-2" fill="white">
                    <use xlink:href="#path-1"></use>
                </mask>
                <g id="Clip-8"></g>
                <polygon id="Fill-7" fill="#638FB1" mask="url(#mask-2)" points="24.532 3.844 28.645 3.844 28.645 3.55271368e-15 24.532 3.55271368e-15"></polygon>
                <path d="M53.827,21.401 L50.545,21.401 C50.172,21.401 49.87,21.099 49.87,20.727 C49.87,20.354 50.172,20.052 50.545,20.052 L53.827,20.052 C54.2,20.052 54.502,20.354 54.502,20.727 C54.502,21.099 54.2,21.401 53.827,21.401" id="Fill-9" fill="#343534" mask="url(#mask-2)"></path>
                <path d="M47.81,21.401 L11.433,21.401 C11.06,21.401 10.758,21.099 10.758,20.727 C10.758,20.354 11.06,20.052 11.433,20.052 L47.81,20.052 C48.183,20.052 48.484,20.354 48.484,20.727 C48.484,21.099 48.183,21.401 47.81,21.401" id="Fill-10" fill="#343534" mask="url(#mask-2)"></path>
                <path d="M8.789,21.401 L0.675,21.401 C0.302,21.401 0,21.099 0,20.727 C0,20.354 0.302,20.052 0.675,20.052 L8.789,20.052 C9.162,20.052 9.464,20.354 9.464,20.727 C9.464,21.099 9.162,21.401 8.789,21.401" id="Fill-11" fill="#343534" mask="url(#mask-2)"></path>
            </g>
            <path d="M31.192,46.388 C30.819,46.388 30.518,46.086 30.518,45.713 L30.518,4.297 L15.9,4.297 C15.527,4.297 15.226,3.995 15.226,3.623 C15.226,3.25 15.527,2.948 15.9,2.948 L31.192,2.948 C31.566,2.948 31.867,3.25 31.867,3.623 L31.867,45.713 C31.867,46.086 31.566,46.388 31.192,46.388" id="Fill-13" fill="#343534"></path>
            <path d="M6.88,23.048 C6.507,23.048 6.205,22.746 6.205,22.373 L6.205,3.623 C6.205,3.25 6.507,2.948 6.88,2.948 L12.982,2.948 C13.355,2.948 13.657,3.25 13.657,3.623 C13.657,3.995 13.355,4.297 12.982,4.297 L7.555,4.297 L7.555,22.373 C7.555,22.746 7.253,23.048 6.88,23.048" id="Fill-14" fill="#343534"></path>
            <path d="M6.88,47.938 C6.507,47.938 6.205,47.635 6.205,47.263 L6.205,25.199 C6.205,24.827 6.507,24.524 6.88,24.524 C7.253,24.524 7.555,24.827 7.555,25.199 L7.555,47.263 C7.555,47.635 7.253,47.938 6.88,47.938" id="Fill-15" fill="#343534"></path>
            <path d="M40.266,41.83 C39.927,41.83 39.635,41.575 39.596,41.23 C39.554,40.86 39.82,40.525 40.19,40.483 C42.559,40.215 44.15,37.991 44.15,34.946 C44.15,32.088 41.021,26.909 39.72,24.879 C38.418,26.909 35.288,32.088 35.288,34.946 C35.288,37.273 36.227,39.172 37.797,40.028 C38.125,40.206 38.246,40.616 38.067,40.943 C37.89,41.27 37.48,41.39 37.152,41.213 C35.14,40.118 33.938,37.775 33.938,34.946 C33.938,30.94 38.949,23.579 39.163,23.268 C39.289,23.084 39.497,22.975 39.72,22.975 C39.942,22.975 40.15,23.085 40.276,23.268 C40.49,23.579 45.5,30.94 45.5,34.946 C45.5,38.712 43.428,41.476 40.343,41.825 C40.316,41.828 40.291,41.83 40.266,41.83" id="Fill-16" fill="#343534"></path>
            <g id="Group-21" transform="translate(13.134000, 30.785000)">
                <mask id="mask-4" fill="white">
                    <use xlink:href="#path-3"></use>
                </mask>
                <g id="Clip-18"></g>
                <path d="M26.586,17.396 C26.213,17.396 25.911,17.094 25.911,16.721 L25.911,0.675 C25.911,0.302 26.213,3.55271368e-15 26.586,3.55271368e-15 C26.959,3.55271368e-15 27.261,0.302 27.261,0.675 L27.261,16.721 C27.261,17.094 26.959,17.396 26.586,17.396" id="Fill-17" fill="#343534" mask="url(#mask-4)"></path>
                <path d="M11.129,17.639 C10.756,17.639 10.454,17.337 10.454,16.965 L10.454,7.427 L1.349,7.427 L1.349,15.293 C1.349,15.666 1.048,15.968 0.675,15.968 C0.302,15.968 0,15.666 0,15.293 L0,6.753 C0,6.381 0.302,6.078 0.675,6.078 L11.129,6.078 C11.502,6.078 11.803,6.381 11.803,6.753 L11.803,16.965 C11.803,17.337 11.502,17.639 11.129,17.639" id="Fill-19" fill="#343534" mask="url(#mask-4)"></path>
                <path d="M5.902,17.639 C5.529,17.639 5.227,17.337 5.227,16.965 L5.227,7.482 C5.227,7.11 5.529,6.807 5.902,6.807 C6.275,6.807 6.577,7.11 6.577,7.482 L6.577,16.965 C6.577,17.337 6.275,17.639 5.902,17.639" id="Fill-20" fill="#343534" mask="url(#mask-4)"></path>
            </g>
            <path d="M10.302,14.131 L13.419,14.131 L13.419,11.013 L10.302,11.013 L10.302,14.131 Z M14.094,15.481 L9.627,15.481 C9.254,15.481 8.952,15.179 8.952,14.806 L8.952,10.338 C8.952,9.966 9.254,9.664 9.627,9.664 L14.094,9.664 C14.467,9.664 14.769,9.966 14.769,10.338 L14.769,14.806 C14.769,15.179 14.467,15.481 14.094,15.481 L14.094,15.481 Z" id="Fill-22" fill="#343534"></path>
            <polygon id="Fill-23" fill="#BBCFDB" points="16.802 14.806 21.269 14.806 21.269 10.339 16.802 10.339"></polygon>
            <path d="M17.478,14.131 L20.595,14.131 L20.595,11.013 L17.478,11.013 L17.478,14.131 Z M21.27,15.481 L16.803,15.481 C16.43,15.481 16.128,15.179 16.128,14.806 L16.128,10.338 C16.128,9.966 16.43,9.664 16.803,9.664 L21.27,9.664 C21.643,9.664 21.944,9.966 21.944,10.338 L21.944,14.806 C21.944,15.179 21.643,15.481 21.27,15.481 L21.27,15.481 Z" id="Fill-24" fill="#343534"></path>
            <polygon id="Fill-25" fill="#BBCFDB" points="23.978 14.806 28.446 14.806 28.446 10.339 23.978 10.339"></polygon>
            <path d="M24.652,14.131 L27.77,14.131 L27.77,11.013 L24.652,11.013 L24.652,14.131 Z M28.445,15.481 L23.978,15.481 C23.604,15.481 23.303,15.179 23.303,14.806 L23.303,10.338 C23.303,9.966 23.604,9.664 23.978,9.664 L28.445,9.664 C28.818,9.664 29.12,9.966 29.12,10.338 L29.12,14.806 C29.12,15.179 28.818,15.481 28.445,15.481 L28.445,15.481 Z" id="Fill-26" fill="#343534"></path>
            <path d="M10.302,22.336 L13.419,22.336 L13.419,19.218 L10.302,19.218 L10.302,22.336 Z M14.094,23.686 L9.627,23.686 C9.254,23.686 8.952,23.384 8.952,23.011 L8.952,18.544 C8.952,18.171 9.254,17.869 9.627,17.869 L14.094,17.869 C14.467,17.869 14.769,18.171 14.769,18.544 L14.769,23.011 C14.769,23.384 14.467,23.686 14.094,23.686 L14.094,23.686 Z" id="Fill-27" fill="#343534"></path>
            <polygon id="Fill-28" fill="#BBCFDB" points="16.802 23.011 21.269 23.011 21.269 18.544 16.802 18.544"></polygon>
            <path d="M17.478,22.336 L20.595,22.336 L20.595,19.218 L17.478,19.218 L17.478,22.336 Z M21.27,23.686 L16.803,23.686 C16.43,23.686 16.128,23.384 16.128,23.011 L16.128,18.544 C16.128,18.171 16.43,17.869 16.803,17.869 L21.27,17.869 C21.643,17.869 21.944,18.171 21.944,18.544 L21.944,23.011 C21.944,23.384 21.643,23.686 21.27,23.686 L21.27,23.686 Z" id="Fill-29" fill="#343534"></path>
            <path d="M24.659,22.336 L27.771,22.336 L27.771,19.219 L24.653,19.219 L24.659,22.336 Z M28.445,23.686 L23.985,23.686 C23.613,23.686 23.311,23.385 23.311,23.012 L23.3029896,18.545 C23.302,18.366 23.373,18.194 23.5,18.067 C23.626,17.94 23.798,17.869 23.978,17.869 L28.445,17.869 C28.818,17.869 29.12,18.171 29.12,18.544 L29.12,23.011 C29.12,23.384 28.818,23.686 28.445,23.686 L28.445,23.686 Z" id="Fill-30" fill="#343534"></path>
            <polygon id="Fill-31" fill="#BBCFDB" points="9.627 31.217 14.094 31.217 14.094 26.75 9.627 26.75"></polygon>
            <path d="M10.302,30.542 L13.419,30.542 L13.419,27.424 L10.302,27.424 L10.302,30.542 Z M14.094,31.892 L9.627,31.892 C9.254,31.892 8.952,31.589 8.952,31.217 L8.952,26.75 C8.952,26.377 9.254,26.075 9.627,26.075 L14.094,26.075 C14.467,26.075 14.769,26.377 14.769,26.75 L14.769,31.217 C14.769,31.589 14.467,31.892 14.094,31.892 L14.094,31.892 Z" id="Fill-32" fill="#343534"></path>
            <path d="M17.478,30.542 L20.595,30.542 L20.595,27.424 L17.478,27.424 L17.478,30.542 Z M21.27,31.892 L16.803,31.892 C16.43,31.892 16.128,31.589 16.128,31.217 L16.128,26.75 C16.128,26.377 16.43,26.075 16.803,26.075 L21.27,26.075 C21.643,26.075 21.944,26.377 21.944,26.75 L21.944,31.217 C21.944,31.589 21.643,31.892 21.27,31.892 L21.27,31.892 Z" id="Fill-33" fill="#343534"></path>
            <g id="Group-37" transform="translate(9.107000, 0.000000)" fill="#343534">
                <path d="M15.545,30.542 L18.663,30.542 L18.663,27.424 L15.545,27.424 L15.545,30.542 Z M19.338,31.892 L14.871,31.892 C14.497,31.892 14.196,31.589 14.196,31.217 L14.196,26.75 C14.196,26.377 14.497,26.075 14.871,26.075 L19.338,26.075 C19.711,26.075 20.013,26.377 20.013,26.75 L20.013,31.217 C20.013,31.589 19.711,31.892 19.338,31.892 L19.338,31.892 Z" id="Fill-34"></path>
                <path d="M0.675,4.267 C0.302,4.267 -3.55271368e-15,3.964 -3.55271368e-15,3.592 L-3.55271368e-15,0.674 C-3.55271368e-15,0.302 0.302,0 0.675,0 L19.183,0 C19.556,0 19.858,0.302 19.858,0.674 L19.858,1.769 C19.858,2.141 19.556,2.443 19.183,2.443 C18.81,2.443 18.508,2.141 18.508,1.769 L18.508,1.349 L1.35,1.349 L1.35,3.592 C1.35,3.964 1.048,4.267 0.675,4.267" id="Fill-36"></path>
            </g>
        </g>
    </g>
</svg>