<?xml version="1.0" encoding="UTF-8"?>
<svg width="90px" height="60px" viewBox="0 0 90 60" version="1.1" xmlns="http://www.w3.org/2000/svg" xmlns:xlink="http://www.w3.org/1999/xlink">
    <title>Large Icons</title>
    <defs>
        <polygon id="path-1" points="0.06 0.866657434 19.8031112 0.866657434 19.8031112 21.94 0.06 21.94"></polygon>
        <polygon id="path-3" points="0.852302491 0.900278919 72.13 0.900278919 72.13 27.94 0.852302491 27.94"></polygon>
        <polygon id="path-5" points="0.796 0.861 9.477 0.861 9.477 11.94 0.796 11.94"></polygon>
    </defs>
    <g id="Large-Icons" stroke="none" stroke-width="1" fill="none" fill-rule="evenodd">
        <g id="technician-changing-tire_lg" transform="translate(7.500000, 11.500000)">
            <polyline id="Fill-1" fill="#343534" points="38.863 36.624 32.671 30.89 33.589 29.9 39.781 35.633 38.863 36.624"></polyline>
            <polyline id="Fill-2" fill="#343534" points="33.589 36.624 32.671 35.633 38.863 29.9 39.781 30.89 33.589 36.624"></polyline>
            <path d="M7.785,9.79 C7.785,9.79 10.383,7.87 11.983,8.478 C13.582,9.087 14.129,11.521 13.674,13 C13.219,14.479 10.749,11.815 10.749,11.815 L7.785,9.79" id="Fill-3" fill="#638FB1"></path>
            <polyline id="Fill-4" fill="#638FB1" points="1.529 25.852 7.215 28.553 8.779 26.563 8.921 22.156 12.475 25.284 14.93 25.99 16.382 23.084 13.47 21.73 9.348 17.039 5.652 16.897 2.24 19.74 1.126 24.73 1.529 25.852"></polyline>
            <g id="Group-9" transform="translate(0.000000, 15.000000)">
                <mask id="mask-2" fill="white">
                    <use xlink:href="#path-1"></use>
                </mask>
                <g id="Clip-6"></g>
                <path d="M8.496,14.086 C8.48,14.086 8.464,14.086 8.449,14.085 C8.077,14.059 7.795,13.737 7.821,13.365 L8.247,7.11 C8.273,6.738 8.603,6.457 8.967,6.483 C9.339,6.508 9.621,6.83 9.595,7.202 L9.168,13.457 C9.144,13.813 8.847,14.086 8.496,14.086" id="Fill-5" fill="#343534" mask="url(#mask-2)"></path>
                <path d="M12.577,21.969 L0.848,21.969 C0.475,21.969 0.173,21.667 0.173,21.295 C0.173,20.922 0.475,20.62 0.848,20.62 L12.577,20.62 C14.101,20.62 15.342,19.379 15.342,17.854 L15.342,16.628 L3.74,12.917 C3.385,12.803 3.189,12.424 3.303,12.068 C3.416,11.713 3.798,11.52 4.152,11.631 L16.223,15.493 C16.502,15.583 16.692,15.842 16.692,16.135 L16.692,17.854 C16.692,20.123 14.846,21.969 12.577,21.969" id="Fill-7" fill="#343534" mask="url(#mask-2)"></path>
                <path d="M11.764,18.777 C11.762,18.777 11.759,18.777 11.757,18.777 L3.746,18.693 C2.693,18.682 1.685,18.229 0.978,17.449 C0.272,16.668 -0.08,15.619 0.015,14.57 L0.455,9.671 C0.636,7.644 1.363,5.703 2.555,4.056 L3.389,2.905 C4.333,1.603 5.858,0.818 7.465,0.869 L8.154,0.882 C9.34,0.902 10.468,1.486 11.17,2.444 L14.418,6.594 L19.389,8.674 C19.644,8.78 19.808,9.032 19.8031112,9.309 C19.787,10.132 19.406,10.896 18.755,11.402 C18.106,11.909 17.275,12.093 16.469,11.905 L12.322,10.941 C12.214,10.916 12.114,10.865 12.031,10.792 L7.482,6.811 C7.202,6.566 7.172,6.139 7.418,5.859 C7.663,5.577 8.09,5.55 8.371,5.795 L12.792,9.665 L16.776,10.59 C17.182,10.684 17.599,10.592 17.926,10.338 C18.136,10.174 18.291,9.957 18.376,9.713 L13.735,7.772 C13.628,7.727 13.536,7.656 13.464,7.565 L10.094,3.259 C9.627,2.622 8.898,2.244 8.13,2.231 L7.442,2.219 C6.28,2.185 5.167,2.751 4.483,3.697 L3.649,4.848 C2.598,6.298 1.958,8.008 1.798,9.791 L1.359,14.69 C1.298,15.376 1.518,16.033 1.979,16.543 C2.44,17.052 3.073,17.337 3.759,17.343 L11.771,17.427 C12.144,17.431 12.443,17.737 12.439,18.109 C12.435,18.48 12.134,18.777 11.764,18.777" id="Fill-8" fill="#343534" mask="url(#mask-2)"></path>
            </g>
            <path d="M10.799,9.175 C10.208,9.175 9.639,9.372 9.168,9.742 C8.613,10.179 8.261,10.806 8.177,11.508 C8.005,12.957 9.042,14.275 10.491,14.447 C11.191,14.529 11.885,14.336 12.44,13.9 C12.996,13.462 13.347,12.836 13.431,12.134 C13.603,10.686 12.565,9.367 11.117,9.194 C11.01,9.182 10.905,9.175 10.799,9.175 Z M10.812,15.816 C10.652,15.816 10.492,15.807 10.33,15.788 C8.144,15.528 6.577,13.536 6.837,11.349 C6.963,10.289 7.495,9.341 8.333,8.681 C9.171,8.022 10.215,7.729 11.277,7.854 C13.464,8.115 15.032,10.107 14.771,12.294 C14.645,13.354 14.114,14.3 13.275,14.961 C12.564,15.52 11.703,15.816 10.812,15.816 L10.812,15.816 Z" id="Fill-10" fill="#343534"></path>
            <g id="Group-16" transform="translate(7.000000, 9.000000)">
                <mask id="mask-4" fill="white">
                    <use xlink:href="#path-3"></use>
                </mask>
                <g id="Clip-12"></g>
                <path d="M10.068,6.454 C9.968,6.454 9.867,6.431 9.771,6.384 L1.23,2.181 C0.895,2.016 0.757,1.612 0.922,1.277 C1.086,0.943 1.49,0.805 1.826,0.97 L10.367,5.173 C10.702,5.337 10.839,5.742 10.674,6.076 C10.557,6.315 10.318,6.454 10.068,6.454" id="Fill-11" fill="#343534" mask="url(#mask-4)"></path>
                <path d="M71.455,28 L37.329,28 C36.957,28 36.655,27.698 36.655,27.325 C36.655,26.953 36.957,26.65 37.329,26.65 L71.455,26.65 C71.828,26.65 72.13,26.953 72.13,27.325 C72.13,27.698 71.828,28 71.455,28" id="Fill-13" fill="#343534" mask="url(#mask-4)"></path>
                <path d="M21.148,28 L11.507,28 C11.134,28 10.832,27.698 10.832,27.325 C10.832,26.953 11.134,26.65 11.507,26.65 L21.148,26.65 C21.521,26.65 21.823,26.953 21.823,27.325 C21.823,27.698 21.521,28 21.148,28" id="Fill-14" fill="#343534" mask="url(#mask-4)"></path>
                <path d="M34.648,28 L24.291,28 C23.918,28 23.617,27.698 23.617,27.325 C23.617,26.953 23.918,26.65 24.291,26.65 L34.648,26.65 C35.021,26.65 35.323,26.953 35.323,27.325 C35.323,27.698 35.021,28 34.648,28" id="Fill-15" fill="#343534" mask="url(#mask-4)"></path>
            </g>
            <path d="M27.731,30.75 L26.994,34.232 C26.732,35.467 25.707,36.297 24.703,36.084 L21.602,35.427 C20.599,35.215 19.998,34.041 20.259,32.805 L22.315,23.099 C22.566,21.916 23.548,21.122 24.509,21.325 L26.224,21.688" id="Fill-17" fill="#638FB1"></path>
            <path d="M25.016,36.792 C24.866,36.792 24.714,36.776 24.564,36.744 L21.462,36.087 C20.774,35.941 20.203,35.487 19.856,34.807 C19.532,34.174 19.44,33.414 19.599,32.665 L21.655,22.96 C21.982,21.414 23.324,20.382 24.649,20.665 L26.363,21.028 C26.728,21.105 26.96,21.464 26.883,21.829 C26.805,22.193 26.44,22.426 26.083,22.348 L24.37,21.985 C23.784,21.862 23.146,22.436 22.975,23.239 L20.919,32.945 C20.827,33.384 20.876,33.84 21.057,34.192 C21.216,34.503 21.459,34.707 21.742,34.766 L24.843,35.424 C25.466,35.557 26.153,34.947 26.333,34.091 L27.072,30.609 C27.149,30.244 27.511,30.008 27.872,30.09 C28.237,30.167 28.469,30.525 28.392,30.889 L27.654,34.372 C27.353,35.793 26.223,36.792 25.016,36.792" id="Fill-18" fill="#343534"></path>
            <g id="Group-22" transform="translate(60.000000, 25.000000)">
                <mask id="mask-6" fill="white">
                    <use xlink:href="#path-5"></use>
                </mask>
                <g id="Clip-20"></g>
                <path d="M8.802,1.536 L8.802,9.015 C8.802,10.278 7.916,11.301 6.825,11.301 L3.449,11.301 C2.357,11.301 1.471,10.278 1.471,9.015 L1.471,5.577" id="Fill-19" fill="#638FB1" mask="url(#mask-6)"></path>
                <path d="M6.825,11.976 L3.449,11.976 C1.986,11.976 0.796,10.648 0.796,9.015 L0.796,5.577 C0.796,5.205 1.098,4.902 1.471,4.902 C1.844,4.902 2.146,5.205 2.146,5.577 L2.146,9.015 C2.146,9.903 2.731,10.627 3.449,10.627 L6.825,10.627 C7.542,10.627 8.127,9.903 8.127,9.015 L8.127,1.536 C8.127,1.164 8.429,0.861 8.802,0.861 C9.175,0.861 9.477,1.164 9.477,1.536 L9.477,9.015 C9.477,10.648 8.287,11.976 6.825,11.976" id="Fill-21" fill="#343534" mask="url(#mask-6)"></path>
            </g>
            <path d="M40.634,30.405 L27.324,30.405 C25.097,30.405 23.291,28.599 23.291,26.373 L23.291,17.302 C23.291,15.075 25.097,13.27 27.324,13.27 L64.769,13.27 C66.996,13.27 68.802,15.075 68.802,17.302 L68.802,26.373 C68.802,28.599 66.996,30.405 64.769,30.405 L45.655,30.405" id="Fill-23" fill="#BBCFDB"></path>
            <path d="M64.769,31.08 L45.655,31.08 C45.282,31.08 44.98,30.778 44.98,30.405 C44.98,30.033 45.282,29.73 45.655,29.73 L64.769,29.73 C66.62,29.73 68.127,28.224 68.127,26.373 L68.127,17.303 C68.127,15.451 66.62,13.944 64.769,13.944 L27.324,13.944 C25.472,13.944 23.966,15.451 23.966,17.303 L23.966,26.373 C23.966,28.224 25.472,29.73 27.324,29.73 L40.634,29.73 C41.007,29.73 41.309,30.033 41.309,30.405 C41.309,30.778 41.007,31.08 40.634,31.08 L27.324,31.08 C24.728,31.08 22.617,28.968 22.617,26.373 L22.617,17.303 C22.617,14.707 24.728,12.595 27.324,12.595 L64.769,12.595 C67.365,12.595 69.477,14.707 69.477,17.303 L69.477,26.373 C69.477,28.968 67.365,31.08 64.769,31.08" id="Fill-24" fill="#343534"></path>
            <path d="M33.454,24.693 L28.237,24.693 C27.693,24.693 27.253,24.253 27.253,23.709 L27.253,20.518 C27.253,19.975 27.693,19.534 28.237,19.534 L30.264,19.534 C32.57,19.534 34.438,21.403 34.438,23.709 C34.438,24.253 33.998,24.693 33.454,24.693" id="Fill-25" fill="#FFFFFE"></path>
            <path d="M28.237,20.209 C28.066,20.209 27.927,20.348 27.927,20.518 L27.927,23.709 C27.927,23.879 28.066,24.018 28.237,24.018 L33.454,24.018 C33.625,24.018 33.764,23.879 33.764,23.709 C33.764,21.779 32.194,20.209 30.264,20.209 L28.237,20.209 Z M33.454,25.368 L28.237,25.368 C27.322,25.368 26.578,24.624 26.578,23.709 L26.578,20.518 C26.578,19.604 27.322,18.86 28.237,18.86 L30.264,18.86 C32.938,18.86 35.114,21.035 35.114,23.709 C35.114,24.624 34.37,25.368 33.454,25.368 L33.454,25.368 Z" id="Fill-26" fill="#343534"></path>
            <path d="M63.856,24.693 L58.639,24.693 C58.095,24.693 57.655,24.253 57.655,23.709 C57.655,21.403 59.524,19.534 61.829,19.534 L63.856,19.534 C64.4,19.534 64.84,19.975 64.84,20.518 L64.84,23.709 C64.84,24.253 64.4,24.693 63.856,24.693" id="Fill-27" fill="#FFFFFE"></path>
            <path d="M61.829,20.209 C59.9,20.209 58.329,21.779 58.329,23.709 C58.329,23.879 58.468,24.018 58.639,24.018 L63.856,24.018 C64.027,24.018 64.165,23.879 64.165,23.709 L64.165,20.518 C64.165,20.348 64.027,20.209 63.856,20.209 L61.829,20.209 Z M63.856,25.368 L58.639,25.368 C57.724,25.368 56.98,24.624 56.98,23.709 C56.98,21.035 59.156,18.86 61.829,18.86 L63.856,18.86 C64.771,18.86 65.515,19.604 65.515,20.518 L65.515,23.709 C65.515,24.624 64.771,25.368 63.856,25.368 L63.856,25.368 Z" id="Fill-28" fill="#343534"></path>
            <path d="M67.262,8.935 L71.908,8.935 C72.392,8.935 72.785,9.327 72.785,9.811 C72.785,11.864 71.12,13.529 69.067,13.529 L67.262,13.529 C66.778,13.529 66.385,13.136 66.385,12.652 L66.385,9.811 C66.385,9.327 66.778,8.935 67.262,8.935" id="Fill-29" fill="#BBCFDB"></path>
            <path d="M67.262,9.61 C67.151,9.61 67.06,9.7 67.06,9.811 L67.06,12.653 C67.06,12.764 67.151,12.854 67.262,12.854 L69.067,12.854 C70.745,12.854 72.11,11.489 72.11,9.811 C72.11,9.7 72.019,9.61 71.908,9.61 L67.262,9.61 Z M69.067,14.204 L67.262,14.204 C66.407,14.204 65.71,13.508 65.71,12.653 L65.71,9.811 C65.71,8.956 66.407,8.26 67.262,8.26 L71.908,8.26 C72.763,8.26 73.459,8.956 73.459,9.811 C73.459,12.233 71.489,14.204 69.067,14.204 L69.067,14.204 Z" id="Fill-30" fill="#343534"></path>
            <path d="M24.993,8.935 L20.347,8.935 C19.863,8.935 19.47,9.327 19.47,9.811 C19.47,11.864 21.135,13.529 23.188,13.529 L24.993,13.529 C25.477,13.529 25.87,13.136 25.87,12.652 L25.87,9.811 C25.87,9.327 25.477,8.935 24.993,8.935" id="Fill-31" fill="#BBCFDB"></path>
            <path d="M20.347,9.61 C20.236,9.61 20.145,9.7 20.145,9.811 C20.145,11.489 21.51,12.854 23.188,12.854 L24.993,12.854 C25.104,12.854 25.195,12.764 25.195,12.653 L25.195,9.811 C25.195,9.7 25.104,9.61 24.993,9.61 L20.347,9.61 Z M24.993,14.204 L23.188,14.204 C20.766,14.204 18.795,12.233 18.795,9.811 C18.795,8.956 19.492,8.26 20.347,8.26 L24.993,8.26 C25.848,8.26 26.544,8.956 26.544,9.811 L26.544,12.653 C26.544,13.508 25.848,14.204 24.993,14.204 L24.993,14.204 Z" id="Fill-32" fill="#343534"></path>
            <path d="M53.351,25.368 L49.785,25.368 C49.411,25.368 49.11,25.066 49.11,24.693 C49.11,24.321 49.411,24.018 49.785,24.018 L52.676,24.018 L52.676,23.461 C52.676,21.668 51.217,20.209 49.424,20.209 L42.669,20.209 C40.876,20.209 39.417,21.668 39.417,23.461 L39.417,24.018 L47.566,24.018 C47.939,24.018 48.241,24.321 48.241,24.693 C48.241,25.066 47.939,25.368 47.566,25.368 L38.743,25.368 C38.37,25.368 38.068,25.066 38.068,24.693 L38.068,23.461 C38.068,20.924 40.132,18.86 42.669,18.86 L49.424,18.86 C51.961,18.86 54.026,20.924 54.026,23.461 L54.026,24.693 C54.026,25.066 53.724,25.368 53.351,25.368" id="Fill-33" fill="#343534"></path>
            <path d="M63.628,13.89 C63.353,13.89 63.095,13.721 62.995,13.448 L60.112,5.599 C59.393,3.617 57.301,2.287 54.908,2.287 L41.37,2.287 C40.998,2.287 40.696,1.985 40.696,1.612 C40.696,1.24 40.998,0.938 41.37,0.938 L54.908,0.938 C57.868,0.938 60.468,2.625 61.38,5.135 L64.262,12.982 C64.39,13.332 64.211,13.72 63.861,13.849 C63.785,13.877 63.705,13.89 63.628,13.89" id="Fill-34" fill="#343534"></path>
            <path d="M28.98,11.561 C28.9,11.561 28.818,11.546 28.739,11.516 C28.391,11.383 28.216,10.992 28.349,10.644 L30.459,5.125 C31.368,2.625 33.968,0.938 36.928,0.938 L38.504,0.938 C38.877,0.938 39.179,1.24 39.179,1.612 C39.179,1.985 38.877,2.287 38.504,2.287 L36.928,2.287 C34.535,2.287 32.443,3.617 31.725,5.596 L29.611,11.127 C29.507,11.395 29.251,11.561 28.98,11.561" id="Fill-35" fill="#343534"></path>
            <path d="M59.303,13.89 C58.93,13.89 58.628,13.587 58.628,13.215 C58.628,11.079 56.89,9.34 54.753,9.34 C52.618,9.34 50.879,11.079 50.879,13.215 C50.879,13.587 50.578,13.89 50.204,13.89 C49.831,13.89 49.53,13.587 49.53,13.215 C49.53,10.334 51.873,7.991 54.753,7.991 C57.634,7.991 59.978,10.334 59.978,13.215 C59.978,13.587 59.676,13.89 59.303,13.89" id="Fill-36" fill="#343534"></path>
        </g>
    </g>
</svg>